<svg xmlns="http://www.w3.org/2000/svg" width="22" height="20" viewBox="0 0 22 20" fill="none">
  <g clip-path="url(#clip0_4005_8911)">
    <mask id="mask0_4005_8911" style="mask-type:luminance" maskUnits="userSpaceOnUse" x="-1" y="0" width="23" height="20">
      <path d="M21.9968 0H-0.00317383V20H21.9968V0Z" fill="white"/>
    </mask>
    <g mask="url(#mask0_4005_8911)">
      <path d="M13.614 0H8.06271C7.97188 0.00189218 7.8853 0.0391794 7.82106 0.104064C7.75683 0.168949 7.71991 0.256407 7.71804 0.348148C7.58604 5.80741 4.85071 10.9852 0.135375 14.6593C0.0627408 14.7152 0.0144837 14.7975 0.000799616 14.8887C-0.0128845 14.9799 0.00907627 15.073 0.0620421 15.1481L3.31804 19.8519C3.34365 19.8904 3.37678 19.9232 3.41541 19.9484C3.45403 19.9735 3.49733 19.9904 3.54265 19.998C3.58797 20.0056 3.63435 20.0038 3.67895 19.9927C3.72356 19.9816 3.76544 19.9614 3.80204 19.9333C6.65899 17.7452 9.04861 14.9963 10.8274 11.8519C12.6061 14.9963 14.9958 17.7452 17.8527 19.9333C17.8887 19.9612 17.93 19.9813 17.974 19.9924C18.0181 20.0034 18.0639 20.0052 18.1086 19.9975C18.1534 19.9899 18.196 19.973 18.234 19.9479C18.272 19.9229 18.3045 19.8902 18.3294 19.8519L21.5927 15.1481C21.6457 15.073 21.6676 14.9799 21.6539 14.8887C21.6403 14.7975 21.592 14.7152 21.5194 14.6593C16.804 10.9852 14.0687 5.80741 13.9294 0.348148C13.9297 0.260725 13.8974 0.176382 13.839 0.111881C13.7806 0.0473788 13.7003 0.00743974 13.614 0Z" fill="#FF875B"/>
    </g>
  </g>
  <defs>
    <clipPath id="clip0_4005_8911">
      <rect width="22" height="20" fill="white"/>
    </clipPath>
  </defs>
</svg>