<svg width="124" height="28" viewBox="0 0 124 28" fill="none" xmlns="http://www.w3.org/2000/svg">
<path d="M5.72 17.22H15.52V21H0.96V1.4H5.72V17.22ZM26.5048 7H31.2088L26.1128 22.008C25.6928 23.212 24.4608 27.048 19.7288 27.048C19.0288 27.048 18.1888 26.964 17.3208 26.656V22.904C18.0768 23.184 18.6928 23.296 19.2248 23.296C20.5968 23.296 21.3808 22.54 21.8568 21.7L16.1448 7H20.9048L23.8728 16.296L26.5048 7ZM41.9885 6.552C44.4525 6.552 46.1045 8.344 46.1045 11.228C46.1045 12.488 45.7965 13.776 45.2645 14.868H40.6445C41.2045 13.832 41.5405 12.936 41.5405 12.096C41.5405 11.032 41.0085 10.332 40.1405 10.332C38.9085 10.332 37.9845 11.788 37.9845 14.056V21H33.5045V7H37.9845V9.296C38.6565 7.588 40.0845 6.552 41.9885 6.552ZM51.0325 5.432C49.6045 5.432 48.5125 4.34 48.5125 2.912C48.5125 1.484 49.6045 0.391998 51.0325 0.391998C52.4605 0.391998 53.5525 1.484 53.5525 2.912C53.5525 4.34 52.4605 5.432 51.0325 5.432ZM48.7645 21V7H53.2445V21H48.7645ZM63.8005 21.448C59.2365 21.448 56.1845 18.48 56.1845 14C56.1845 9.492 59.2085 6.552 63.8565 6.552C68.5045 6.552 71.9485 9.492 70.4925 14.168H66.1525C66.7125 11.704 65.7605 10.332 63.8845 10.332C61.9805 10.332 60.8045 11.732 60.8045 13.972C60.8045 16.24 62.0365 17.668 63.8565 17.668C65.0325 17.668 65.8165 17.052 66.3485 16.072H71.1925C70.3525 19.32 67.6925 21.448 63.8005 21.448Z" fill="#9747FF"/>
<path d="M89.0893 5.18H79.5973V9.66H87.6053V13.44H79.5973V21H74.8373V1.4H89.0893V5.18ZM92.0191 21V1.4H96.4991V21H92.0191ZM102.407 5.432C100.979 5.432 99.8871 4.34 99.8871 2.912C99.8871 1.484 100.979 0.391998 102.407 0.391998C103.835 0.391998 104.927 1.484 104.927 2.912C104.927 4.34 103.835 5.432 102.407 5.432ZM100.139 21V7H104.619V21H100.139ZM117.275 6.552C121.027 6.552 123.771 9.52 123.771 14C123.771 18.48 121.055 21.476 117.303 21.476C115.259 21.476 113.635 20.58 112.599 19.012V26.6H108.119V7H112.599V8.96C113.635 7.448 115.231 6.552 117.275 6.552ZM115.875 17.696C117.835 17.696 119.151 16.212 119.151 14C119.151 11.788 117.835 10.332 115.875 10.332C113.915 10.332 112.599 11.788 112.599 14C112.599 16.212 113.915 17.696 115.875 17.696Z" fill="#70E3C7"/>
</svg>
