<svg xmlns="http://www.w3.org/2000/svg" width="20" height="20" viewBox="0 0 20 20" fill="none">
  <path opacity="0.2" d="M7.5 18.75L8.75 12.5L3.75 10.625L12.5 1.25L11.25 7.5L16.25 9.375L7.5 18.75Z" fill="white"/>
  <path d="M16.8584 9.23183C16.8347 9.13166 16.7867 9.03888 16.7185 8.96174C16.6504 8.8846 16.5642 8.82549 16.4678 8.78964L11.967 7.10136L13.1123 1.37246C13.1382 1.23935 13.1202 1.10141 13.0608 0.979472C13.0015 0.85753 12.9041 0.758195 12.7834 0.696456C12.6626 0.634718 12.5251 0.613926 12.3915 0.637218C12.2579 0.660511 12.1355 0.726624 12.0427 0.82558L3.29275 10.2006C3.22168 10.2755 3.17027 10.3668 3.14311 10.4664C3.11595 10.566 3.11389 10.6708 3.1371 10.7714C3.16031 10.872 3.20808 10.9652 3.27614 11.0429C3.3442 11.1205 3.43043 11.18 3.52713 11.2162L8.02947 12.9045L6.88728 18.6271C6.86135 18.7603 6.87941 18.8982 6.93874 19.0201C6.99808 19.1421 7.09547 19.2414 7.21621 19.3031C7.33695 19.3649 7.4745 19.3857 7.6081 19.3624C7.74169 19.3391 7.86409 19.273 7.95681 19.174L16.7068 9.79902C16.7766 9.72412 16.8269 9.63323 16.8533 9.53433C16.8798 9.43543 16.8815 9.33155 16.8584 9.23183ZM8.54431 16.7186L9.36228 12.6264C9.39156 12.4812 9.36836 12.3304 9.29682 12.2008C9.22529 12.0712 9.11005 11.9711 8.97166 11.9186L4.84353 10.3678L11.4545 3.28496L10.6373 7.37714C10.608 7.52228 10.6312 7.67309 10.7027 7.80271C10.7743 7.93234 10.8895 8.03236 11.0279 8.08496L15.1529 9.63183L8.54431 16.7186Z" fill="white"/>
</svg>