<svg xmlns="http://www.w3.org/2000/svg" width="24" height="24" viewBox="0 0 24 24" fill="none">
  <path opacity="0.2" d="M9 22.5L10.5 15L4.5 12.75L15 1.5L13.5 9L19.5 11.25L9 22.5Z" fill="white"/>
  <path d="M20.2303 11.0786C20.2019 10.9584 20.1443 10.847 20.0625 10.7545C19.9807 10.6619 19.8773 10.591 19.7616 10.548L14.3606 8.52203L15.735 1.64734C15.7661 1.48761 15.7444 1.32209 15.6732 1.17576C15.602 1.02943 15.4852 0.910224 15.3403 0.836138C15.1954 0.762052 15.0303 0.737102 14.87 0.765053C14.7097 0.793004 14.5628 0.872339 14.4516 0.991087L3.95156 12.2411C3.86628 12.3309 3.80459 12.4405 3.772 12.5601C3.7394 12.6796 3.73692 12.8053 3.76478 12.926C3.79264 13.0467 3.84996 13.1587 3.93163 13.2518C4.01331 13.345 4.11678 13.4164 4.23281 13.4598L9.63562 15.4858L8.265 22.353C8.23388 22.5127 8.25555 22.6782 8.32676 22.8245C8.39796 22.9709 8.51482 23.0901 8.65971 23.1642C8.8046 23.2382 8.96966 23.2632 9.12998 23.2352C9.29029 23.2073 9.43717 23.128 9.54844 23.0092L20.0484 11.7592C20.1322 11.6693 20.1926 11.5603 20.2243 11.4416C20.256 11.3229 20.2581 11.1983 20.2303 11.0786ZM10.2534 20.0626L11.235 15.152C11.2701 14.9779 11.2423 14.7969 11.1564 14.6413C11.0706 14.4858 10.9323 14.3658 10.7662 14.3026L5.8125 12.4417L13.7456 3.94234L12.765 8.85296C12.7299 9.02712 12.7577 9.20809 12.8436 9.36364C12.9294 9.5192 13.0677 9.63922 13.2338 9.70234L18.1838 11.5586L10.2534 20.0626Z" fill="white"/>
</svg>