<svg width="413" height="260" viewBox="0 0 413 260" fill="none" xmlns="http://www.w3.org/2000/svg">
<path d="M332.479 631.863L332.484 631.86C344.558 622.523 349.479 605.977 351.468 588.344C352.811 576.437 352.81 564.137 352.809 553.329C352.809 548.129 352.808 543.274 352.958 538.973M332.479 631.863L353.457 538.991M332.479 631.863C321.927 640.201 307.456 639.802 294.706 637.136C285.396 635.121 276.312 631.718 267.153 628.125C266.045 627.691 264.936 627.253 263.826 626.816C255.765 623.636 247.621 620.424 239.232 618.017C229.765 615.222 221.272 614.142 213.195 614.658C194.78 615.616 179.574 625.099 161.122 636.665L161.119 636.667C142.602 648.492 124.216 649.25 107.672 643.2C91.1066 637.142 76.3601 624.245 65.2047 608.718L65.2034 608.716C56.8143 597.142 49.436 584.78 44.5476 571.678L44.547 571.676C43.8278 569.769 43.067 567.774 42.2775 565.704C36.4975 550.55 29.1782 531.361 25.3652 512.731C21.0249 491.525 21.2738 471.253 33.2691 458.476L33.2706 458.475C35.5302 456.047 39.7431 455.082 45.1704 454.968C50.5637 454.854 56.9895 455.581 63.5147 456.373C64.0304 456.435 64.5467 456.498 65.0632 456.561C71.0635 457.294 77.0794 458.028 82.3231 458.143C85.1728 458.206 87.8129 458.086 90.1126 457.679C92.4089 457.273 94.3973 456.574 95.9177 455.454C103.536 449.887 110.513 443.918 117.382 438.041C120.596 435.292 123.786 432.562 127.007 429.904C137.129 421.55 147.593 413.862 160.183 408.298L160.186 408.297C176.276 401.086 186.069 384.978 195.231 368.192C196.168 366.475 197.098 364.751 198.028 363.028C201.657 356.304 205.278 349.593 209.26 343.374C214.259 335.566 219.802 328.571 226.589 323.352L332.479 631.863ZM352.958 538.973L353.457 538.991M352.958 538.973C352.958 538.974 352.958 538.974 352.958 538.975L353.457 538.991M352.958 538.973C353.072 535.344 353.14 531.584 353.209 527.738C353.36 519.287 353.519 510.418 354.203 501.595C355.198 488.748 357.308 475.935 362.148 464.52M353.457 538.991C353.572 535.347 353.64 531.579 353.709 527.728C354.081 506.989 354.495 483.848 362.61 464.712M362.148 464.52C362.148 464.52 362.148 464.521 362.148 464.521L362.61 464.712M362.148 464.52C362.149 464.519 362.149 464.518 362.15 464.516L362.61 464.712M362.148 464.52L362.61 464.712M382.122 337.373C382.138 337.384 382.154 337.394 382.17 337.404L382.434 336.98L382.086 337.339C382.098 337.35 382.11 337.362 382.122 337.373ZM357.312 323.793C357.312 323.793 357.313 323.793 357.313 323.793L357.44 323.309L357.309 323.792C357.31 323.792 357.311 323.792 357.312 323.793ZM280.13 339.834C280.134 339.835 280.138 339.835 280.142 339.836L280.21 339.341L280.118 339.832C280.122 339.833 280.126 339.833 280.13 339.834Z" stroke="#FCE0C5" stroke-miterlimit="10"/>
<path d="M298.664 652.447L298.667 652.448C313.016 655.782 329.27 656.298 341.473 647.002M298.664 652.447L341.777 647.399M298.664 652.447C288.316 650.117 278.259 646.302 268.141 642.264C266.716 641.695 265.289 641.122 263.86 640.548C255.158 637.05 246.375 633.52 237.324 630.779C226.804 627.44 217.279 626.27 208.456 626.761L208.454 626.761C187.997 627.986 170.865 638.351 150.488 651.257L150.487 651.258C129.546 664.597 108.852 665.375 90.274 658.501C71.675 651.618 55.17 637.051 42.693 619.659L42.691 619.656C33.2293 606.647 24.9599 592.742 19.3639 577.99C18.4615 575.606 17.4984 573.098 16.4949 570.485C9.99289 553.553 1.79422 532.203 -2.57375 511.467C-7.62292 487.497 -7.50419 464.565 6.02328 450.219C7.30301 448.864 9.13858 447.92 11.4436 447.309C13.7481 446.697 16.491 446.426 19.5479 446.394C25.6651 446.33 32.9513 447.224 40.3398 448.188C40.9008 448.262 41.4625 448.335 42.0243 448.409C48.8422 449.304 55.6722 450.2 61.6138 450.381C64.8314 450.48 67.8072 450.37 70.3934 449.931C72.9761 449.493 75.2033 448.722 76.8962 447.474C85.2534 441.345 92.9459 434.747 100.543 428.232C104.269 425.036 107.973 421.859 111.721 418.768C123.126 409.359 134.981 400.697 149.276 394.491L149.276 394.49C167.221 386.669 178 368.556 188.035 349.582C189.125 347.52 190.207 345.448 191.288 343.377C195.195 335.893 199.096 328.419 203.386 321.484C208.861 312.633 214.946 304.699 222.434 298.791L222.434 298.79C224.923 296.824 228.72 296.754 233.468 297.963C238.189 299.165 243.693 301.592 249.447 304.394C251.829 305.554 254.26 306.781 256.692 308.008C260.106 309.731 263.521 311.455 266.805 312.995C272.435 315.634 277.773 317.779 282.234 318.514L282.239 318.515M298.664 652.447L282.239 318.515M341.473 647.002C341.473 647.002 341.474 647.002 341.474 647.001L341.777 647.399M341.473 647.002C341.473 647.002 341.473 647.002 341.472 647.003L341.777 647.399M341.473 647.002C355.096 636.542 360.649 617.919 362.869 598.097C364.399 584.44 364.341 570.318 364.289 558.012C364.266 552.457 364.245 547.272 364.372 542.668M341.777 647.399C365.086 629.503 364.915 588.151 364.79 557.97C364.767 552.425 364.745 547.257 364.871 542.681M364.372 542.668C364.372 542.668 364.372 542.668 364.372 542.669L364.871 542.681M364.372 542.668L364.871 542.681M364.372 542.668L364.871 542.681M282.239 318.515C286.001 319.091 289.31 318.961 291.483 316.711L282.239 318.515ZM381.457 445.311C381.457 445.311 381.457 445.312 381.457 445.312L381.868 445.597L381.458 445.31C381.458 445.311 381.458 445.311 381.457 445.311ZM420.075 403.2C420.075 403.2 420.075 403.2 420.075 403.201L420.535 403.396L420.076 403.197C420.076 403.198 420.076 403.199 420.075 403.2ZM396.271 316.181C396.287 316.191 396.303 316.202 396.32 316.213L396.584 315.788L396.234 316.145C396.246 316.157 396.258 316.169 396.271 316.181ZM368.509 300.876L368.64 300.394L368.503 300.875C368.504 300.875 368.506 300.875 368.507 300.876C368.508 300.876 368.509 300.876 368.509 300.876Z" stroke="#FCE0C5" stroke-miterlimit="10"/>
<path d="M302.722 667.93L302.723 667.93C318.584 671.763 336.894 672.458 350.278 662.252L350.28 662.25C365.592 650.7 371.777 630 374.207 608.002C375.881 592.839 375.765 577.163 375.664 563.551C375.618 557.415 375.576 551.699 375.702 546.637L375.702 546.637C375.825 541.883 375.875 536.938 375.927 531.867C376.031 521.632 376.141 510.886 376.861 500.17C377.939 484.133 380.387 468.097 386.253 453.803L386.254 453.801C388.518 448.358 391.263 443.327 394.389 438.539L394.396 438.529C399.751 430.73 406.647 425.047 413.475 419.421C414.663 418.442 415.849 417.464 417.024 416.478C424.972 409.808 432.478 402.694 437.156 391.739C441.821 380.815 441.874 363.218 437.384 345.047C432.901 326.907 423.915 308.301 410.618 295.331C410.389 295.176 410.196 294.962 410.051 294.801L410.032 294.78C409.85 294.579 409.728 294.45 409.609 294.376L409.567 294.349L409.53 294.315C399.403 284.75 389.089 280.731 379.807 278.132C350.054 270.036 317.956 272.486 294.799 295.38C292.449 297.725 288.791 298.079 284.609 297.258C279.678 296.338 273.776 293.848 267.549 290.808C263.951 289.052 260.213 287.095 256.476 285.139C253.752 283.713 251.029 282.288 248.361 280.94C242.004 277.73 235.926 274.943 230.717 273.533C225.481 272.116 221.291 272.136 218.557 274.3C210.299 280.881 203.631 289.735 197.657 299.612C192.984 307.339 188.75 315.666 184.511 324.002C183.329 326.326 182.147 328.651 180.955 330.964C170.047 352.126 158.308 372.283 138.47 380.854L138.468 380.855C122.378 387.755 109.203 397.408 96.5618 407.901C92.4452 411.318 88.3809 414.828 84.29 418.362C75.8359 425.664 67.2679 433.064 57.8899 439.942M302.722 667.93L57.5935 439.54M302.722 667.93C291.286 665.199 280.208 660.888 269.13 656.404C267.909 655.909 266.688 655.413 265.467 654.917C255.615 650.912 245.732 646.895 235.603 643.88M302.722 667.93L235.457 644.358M57.8899 439.942C57.8897 439.943 57.8894 439.943 57.8892 439.943L57.5935 439.54M57.8899 439.942C57.8901 439.942 57.8902 439.942 57.8904 439.942L57.5935 439.54M57.8899 439.942C56.0247 441.319 53.5592 442.162 50.6903 442.632C47.8179 443.103 44.5069 443.204 40.9222 443.071C34.3248 442.827 26.7357 441.785 19.1519 440.743C18.4989 440.654 17.846 440.564 17.1938 440.475C8.94836 439.348 0.811466 438.303 -6.01504 438.341C-9.42668 438.361 -12.4886 438.651 -15.0598 439.326C-17.6315 440.002 -19.6808 441.055 -21.106 442.579L-21.1079 442.581C-36.1684 458.496 -36.1111 484.063 -30.3197 510.748C-25.4198 533.326 -16.4531 556.543 -9.28837 575.094C-7.99587 578.44 -6.76203 581.635 -5.62127 584.647M57.5935 439.54C50.7648 444.579 35.0471 442.421 19.2145 440.247C2.07993 437.894 -15.1892 435.523 -21.4711 442.237C-49.6399 472.005 -25.3719 534.839 -9.75167 575.282C-8.45993 578.627 -7.22733 581.818 -6.08842 584.825M-5.62127 584.647C-5.62141 584.647 -5.62156 584.646 -5.6217 584.646L-6.08842 584.825M-5.62127 584.647C-5.62113 584.647 -5.62098 584.648 -5.62084 584.648L-6.08842 584.825M-5.62127 584.647C0.682225 601.048 9.84303 616.497 20.1968 631.05M-6.08842 584.825C0.235082 601.279 9.42064 616.766 19.7899 631.34M19.7899 631.34L20.1964 631.049C20.1966 631.049 20.1967 631.05 20.1968 631.05M19.7899 631.34C47.5632 670.136 93.1358 696.599 140.322 666.614M19.7899 631.34L20.1973 631.05C20.1971 631.05 20.197 631.05 20.1968 631.05M20.1968 631.05C34.0449 650.393 52.3079 666.629 72.9503 674.301C93.5706 681.965 116.596 681.098 140.053 666.193M140.322 666.614L140.053 666.193M140.322 666.614C162.815 652.257 181.589 641.189 203.858 639.984M140.322 666.614L140.054 666.192C140.053 666.192 140.053 666.193 140.053 666.193M140.053 666.193C162.534 651.843 181.412 640.699 203.829 639.485M203.858 639.984L203.829 639.485M203.858 639.984C213.547 639.416 223.859 640.773 235.457 644.358M203.858 639.984L203.831 639.484C203.831 639.484 203.83 639.484 203.829 639.485M203.829 639.485C213.587 638.913 223.959 640.281 235.603 643.88M235.457 644.358L235.599 643.879C235.6 643.879 235.602 643.88 235.603 643.88M235.457 644.358L235.604 643.88C235.604 643.88 235.603 643.88 235.603 643.88" stroke="#FCE0C5" stroke-miterlimit="10"/>
<path d="M306.779 683.412L306.783 683.413C324.245 687.914 344.336 688.726 359.37 677.563C376.278 664.976 383.071 642.158 385.731 617.912C387.544 601.383 387.43 584.299 387.33 569.449C387.284 562.515 387.241 556.067 387.399 550.392C387.506 545.265 387.534 539.926 387.562 534.445C387.622 523.153 387.684 511.262 388.445 499.395C389.575 481.757 392.25 464.104 398.771 448.403C401.201 442.412 404.117 436.819 407.804 431.699C413.665 423.109 421.235 416.845 428.739 410.635C430.022 409.574 431.303 408.514 432.574 407.444C441.293 400.1 449.547 392.269 454.703 380.238C459.846 368.239 459.866 348.892 454.907 328.905C449.954 308.939 440.059 288.443 425.492 274.142C425.235 273.921 425.051 273.717 424.886 273.534L424.88 273.528C424.711 273.34 424.561 273.175 424.348 272.994L424.339 272.986L424.329 272.977C413.142 262.424 401.882 258.038 391.756 255.242C359.362 246.384 324.091 248.84 298.581 274.006L298.572 274.015C295.854 276.564 291.917 276.849 287.175 275.897C281.795 274.834 275.322 272.017 268.478 268.581C264.534 266.601 260.434 264.398 256.333 262.195C253.325 260.579 250.316 258.963 247.368 257.434C240.374 253.806 233.685 250.651 227.97 249.039C222.223 247.417 217.637 247.406 214.683 249.806L214.681 249.808C205.652 257.061 198.407 266.847 191.942 277.764C186.906 286.27 182.356 295.436 177.803 304.608C176.51 307.213 175.217 309.819 173.912 312.41C162.143 335.781 149.443 357.984 127.661 367.218C109.866 374.76 95.3251 385.43 81.3894 397.013C76.9707 400.686 72.6089 404.454 68.2224 408.244C58.7924 416.391 49.2489 424.637 38.7832 432.24M306.779 683.412L38.4877 431.837M306.779 683.412C294.256 680.28 282.204 675.447 270.128 670.452C269.098 670.026 268.068 669.599 267.038 669.172C255.994 664.593 244.894 659.991 233.401 656.572C220.63 652.712 209.232 651.253 198.73 651.799M306.779 683.412L198.73 651.799M38.7832 432.24C38.7827 432.24 38.7822 432.241 38.7816 432.241L38.4877 431.837M38.7832 432.24C38.7838 432.24 38.7843 432.239 38.7848 432.239L38.4877 431.837M38.7832 432.24C36.7462 433.744 34.043 434.659 30.8885 435.161C27.7296 435.663 24.0831 435.755 20.1304 435.587C12.8362 435.276 4.43402 434.072 -3.96639 432.868C-4.66563 432.768 -5.36487 432.667 -6.06345 432.568C-15.1721 431.268 -24.1694 430.056 -31.7197 430.045C-35.4933 430.039 -38.883 430.334 -41.7311 431.058C-44.5796 431.782 -46.854 432.927 -48.4365 434.599M38.4877 431.837C30.9931 437.372 13.6111 434.881 -3.9014 432.372C-22.8082 429.663 -41.867 426.932 -48.7998 434.256M-48.4365 434.599C-48.4362 434.599 -48.436 434.599 -48.4358 434.598L-48.7998 434.256M-48.4365 434.599C-64.9823 452.171 -64.7928 480.401 -58.3175 509.805C-52.8906 534.449 -43.0869 559.757 -35.2402 580.013C-33.7355 583.897 -32.3027 587.596 -30.9866 591.069L-30.9864 591.069C-24.0612 609.392 -13.8285 626.275 -2.4984 642.096L-2.49822 642.096C12.6709 663.305 32.7628 681.227 55.4624 689.71C78.1394 698.186 103.448 697.256 129.138 680.72L129.138 680.719C153.72 664.929 174.249 652.83 198.73 651.799M-48.4365 434.599C-48.4365 434.599 -48.4366 434.599 -48.4367 434.599L-48.7998 434.256M-48.7998 434.256L198.73 651.799" stroke="#FCE0C5" stroke-miterlimit="10"/>
<path d="M310.836 698.894L310.835 698.893C297.224 695.361 284.152 690.031 271.067 684.506C269.729 683.94 268.389 683.373 267.05 682.805C255.306 677.829 243.506 672.829 231.291 668.99L231.289 668.989C217.572 664.76 205.325 663.104 193.888 663.73C167.183 665.134 145.19 678.077 118.408 695.138L118.407 695.139C90.2015 713.242 62.5375 714.218 37.8043 704.932C13.0482 695.636 -8.8018 676.045 -25.2923 652.971L-25.2931 652.97C-37.6934 635.718 -48.6351 617.186 -56.2688 597.211C-57.7594 593.288 -59.3895 589.097 -61.1044 584.688C-69.6793 562.644 -80.3754 535.146 -86.3554 508.371C-93.5392 476.205 -93.8604 445.312 -75.7812 426.17C-74.041 424.35 -71.5428 423.11 -68.4202 422.334C-65.2977 421.557 -61.5837 421.252 -57.4521 421.276C-49.1857 421.323 -39.3374 422.686 -29.3719 424.148C-28.574 424.265 -27.7754 424.383 -26.9769 424.5C-17.8187 425.85 -8.6664 427.198 -0.718024 427.581C3.60467 427.79 7.59048 427.714 11.0418 427.192C14.4894 426.671 17.4393 425.7 19.6604 424.09L19.6632 424.088C30.8075 415.894 40.9924 407.047 51.057 398.304C56.0293 393.985 60.9722 389.692 65.9869 385.515C81.1704 372.869 97.0572 361.251 116.557 353.066L116.558 353.066C140.14 343.137 153.825 318.934 166.48 293.395C167.918 290.493 169.343 287.573 170.768 284.653C175.625 274.7 180.48 264.75 185.855 255.51C192.803 243.565 200.594 232.85 210.324 224.907C213.525 222.308 218.511 222.381 224.756 224.227C230.967 226.063 238.243 229.6 245.853 233.658C249.076 235.376 252.365 237.192 255.654 239.008C260.101 241.463 264.547 243.917 268.827 246.13C276.277 249.982 283.319 253.155 289.17 254.403C294.293 255.592 298.711 255.276 301.52 252.431C329.382 224.995 367.727 222.365 402.855 232.154C413.914 235.314 426.101 240.06 438.33 251.566C438.671 252.124 439.184 252.56 439.626 252.935L439.643 252.95C455.557 268.529 466.354 290.903 471.774 312.684C477.2 334.486 477.214 355.585 471.684 368.606L471.684 368.607C466.099 381.799 457.144 390.32 447.665 398.302C446.264 399.482 444.85 400.65 443.435 401.821C435.288 408.556 427.06 415.36 420.642 424.745C416.603 430.527 413.52 436.672 410.826 443.039L410.823 443.046C403.839 460.27 401.007 479.555 399.824 498.795C399.043 511.484 398.979 524.184 398.918 536.267C398.887 542.491 398.856 548.551 398.729 554.362C398.592 560.344 398.654 567.122 398.722 574.411C398.873 590.751 399.048 609.661 397.048 627.941C394.156 654.377 386.731 679.273 368.273 692.984L368.273 692.985C352.059 705.055 329.814 703.895 310.836 698.894ZM310.709 699.377C329.727 704.389 352.168 705.597 368.571 693.386L310.709 699.377Z" stroke="#FCE0C5" stroke-miterlimit="10"/>
<path d="M314.891 714.375L314.89 714.375C300.191 710.442 286.124 704.657 272.033 698.713C270.964 698.262 269.895 697.81 268.826 697.358C255.806 691.855 242.723 686.325 229.104 682.13L229.102 682.129C214.255 677.638 201.263 675.958 188.803 676.493L188.8 676.493C160.134 677.886 136.394 691.609 107.508 710.113L107.506 710.114C76.9762 729.901 47.0288 730.94 20.2625 720.829C-6.52727 710.709 -30.1603 689.406 -47.9721 664.467L-47.9731 664.465C-61.5481 645.602 -73.5615 625.635 -81.7178 603.91L-82.1859 604.086L-81.7178 603.91C-83.5005 599.165 -85.4788 594.056 -87.5689 588.658C-96.6958 565.088 -107.955 536.011 -114.369 507.665C-122.259 472.793 -122.758 439.263 -103.193 418.464C-101.33 416.489 -98.6354 415.149 -95.2576 414.316C-91.8808 413.482 -87.8554 413.163 -83.3731 413.202C-74.4057 413.28 -63.7008 414.791 -52.8667 416.408C-52.0126 416.536 -51.1578 416.664 -50.3029 416.792C-40.3315 418.287 -30.3641 419.781 -21.7154 420.22C-17.0185 420.459 -12.6912 420.387 -8.94918 419.831C-5.21113 419.275 -2.02062 418.23 0.372113 416.492L0.372906 416.492C12.6026 407.574 23.7613 397.883 34.8002 388.296C40.0701 383.72 45.3127 379.167 50.6316 374.733C67.1097 360.997 84.3627 348.362 105.567 339.535C131.092 328.943 145.737 302.696 159.253 274.948C160.801 271.769 162.335 268.571 163.868 265.372C169.042 254.58 174.215 243.789 179.956 233.769C187.395 220.783 195.763 209.137 206.264 200.521C209.665 197.752 215.021 197.887 221.747 199.947C228.438 201.996 236.295 205.89 244.519 210.351C248.007 212.243 251.568 214.24 255.129 216.238C259.934 218.933 264.739 221.629 269.366 224.065C277.431 228.311 285.05 231.822 291.373 233.254L291.383 233.256C296.954 234.401 301.47 234.26 304.649 231.209L304.653 231.205C334.866 201.495 376.202 198.963 414.156 209.41C426.34 212.831 439.573 218.115 452.763 230.44C453.104 230.997 453.617 231.434 454.058 231.809L454.075 231.823C471.297 248.819 482.97 273.029 488.833 296.581C494.702 320.155 494.725 342.963 488.765 357.147C482.793 371.361 473.093 380.598 462.818 389.268C461.314 390.537 459.797 391.795 458.277 393.054C449.432 400.385 440.501 407.788 433.58 417.962L433.577 417.967C429.375 424.296 426.025 430.82 423.16 437.748L423.159 437.75C415.52 456.381 412.461 477.284 411.225 498.125C410.403 511.97 410.386 525.82 410.37 538.965C410.361 545.595 410.353 552.046 410.242 558.226C410.106 564.663 410.189 571.969 410.279 579.834C410.48 597.483 410.713 617.949 408.569 637.739C405.468 666.351 397.41 693.325 377.263 708.126L377.261 708.128C359.498 721.322 335.379 719.875 314.891 714.375Z" stroke="#FCE0C5" stroke-miterlimit="10"/>
<path d="M318.947 729.857L318.945 729.856C303.158 725.522 288.071 719.241 272.925 712.847C272.308 712.587 271.691 712.326 271.073 712.065C256.549 705.93 241.944 699.761 226.635 695.206C210.738 690.173 196.534 688.51 183.332 689.019L183.329 689.019C152.701 690.402 127.311 705.077 96.3258 725.022L96.325 725.023C63.463 746.271 31.206 747.329 2.38271 736.407C-26.4638 725.475 -51.9005 702.529 -71.0331 675.726C-85.4995 655.319 -98.404 633.809 -107.268 610.435L-107.268 610.434C-109.15 605.491 -111.232 600.176 -113.43 594.562C-123.403 569.097 -135.776 537.503 -142.834 506.707C-151.456 469.086 -152.087 432.894 -130.988 410.524C-128.968 408.4 -126.048 406.969 -122.393 406.087C-118.74 405.206 -114.386 404.881 -109.542 404.945C-99.851 405.073 -88.2859 406.752 -76.5886 408.542C-75.6881 408.679 -74.7868 408.818 -73.8856 408.956C-63.0976 410.614 -52.3171 412.27 -42.9717 412.776C-37.9068 413.05 -33.244 412.988 -29.2157 412.4C-25.1914 411.812 -21.7633 410.695 -19.1989 408.829L-19.1982 408.829C-6.04291 399.222 5.922 388.78 17.7615 378.447C23.4134 373.515 29.0366 368.607 34.7471 363.828C52.4384 349.02 71.0122 335.394 94.0135 325.873C121.429 314.532 137.105 286.26 151.53 256.331C153.224 252.815 154.902 249.276 156.579 245.737C162.054 234.184 167.528 222.634 173.597 211.901C181.522 197.885 190.438 185.308 201.64 176.002C205.31 172.967 211.09 173.125 218.332 175.383C225.537 177.63 233.998 181.896 242.848 186.78C246.635 188.87 250.5 191.077 254.363 193.282C259.499 196.215 264.632 199.147 269.575 201.798C278.242 206.448 286.422 210.294 293.193 211.868C299.172 213.257 304.042 212.894 307.398 209.747L307.407 209.739C339.606 177.969 384.199 175.155 424.889 186.534L424.891 186.534C438.218 190.222 452.413 195.882 466.495 209.333L466.506 209.343L466.517 209.353C466.746 209.548 467.002 209.786 467.269 210.036C467.527 210.276 467.795 210.527 468.042 210.737C486.612 229.01 499.186 255.099 505.517 280.466C511.853 305.855 511.91 330.414 505.563 345.622L506.025 345.814L505.563 345.622C499.162 360.996 488.715 370.95 477.658 380.272C476.031 381.643 474.391 383 472.749 384.36C463.238 392.233 453.645 400.174 446.237 411.112L446.235 411.116C441.765 417.828 438.063 425.013 435.028 432.498L435.027 432.501C427.017 452.602 423.847 475.11 422.581 497.538C421.757 512.14 421.739 526.742 421.722 540.629C421.713 548.058 421.704 555.282 421.572 562.193L421.572 562.194C421.455 568.937 421.556 576.573 421.666 584.79C421.921 603.927 422.217 626.222 419.886 647.769C416.553 678.57 407.863 707.622 386.167 723.547C367.121 737.484 341.039 736.026 318.947 729.857Z" stroke="#FCE0C5" stroke-miterlimit="10"/>
<path d="M323 745.338L322.999 745.338C306.126 740.603 290.065 733.799 273.98 726.835C272.921 726.377 271.862 725.918 270.803 725.459C255.78 718.944 240.688 712.401 224.891 707.411L224.889 707.411C207.865 702.116 192.813 700.255 178.676 700.845L178.674 700.845C145.903 702.323 118.583 717.883 85.6783 739.166L85.6779 739.166C50.3489 762.066 15.7861 763.256 -15.068 751.565C-45.9461 739.865 -73.1408 715.25 -93.6441 686.495C-109.084 664.825 -122.979 641.6 -132.55 616.577C-134.608 611.174 -136.893 605.349 -139.309 599.189C-149.971 572.009 -163.195 538.297 -170.785 505.423C-175.439 485.265 -177.966 465.454 -176.491 447.686C-175.017 429.922 -169.546 414.231 -158.232 402.264L-158.232 402.264C-156.066 399.971 -152.93 398.433 -149.006 397.492C-145.082 396.551 -140.406 396.215 -135.203 396.299C-124.793 396.469 -112.365 398.32 -99.798 400.293C-98.8074 400.449 -97.816 400.605 -96.8247 400.761C-85.2574 402.585 -73.7044 404.407 -63.6927 404.99C-58.2559 405.307 -53.2541 405.26 -48.937 404.644C-44.624 404.03 -40.9565 402.842 -38.2205 400.849L-38.2198 400.848C-24.2233 390.614 -11.468 379.488 1.16126 368.473C7.30162 363.117 13.4122 357.788 19.6211 352.599C38.6191 336.723 58.5843 322.122 83.2914 311.958L83.2917 311.958C112.507 299.922 129.121 269.678 144.409 237.594C146.214 233.808 147.999 229.996 149.785 226.183C155.58 213.812 161.377 201.437 167.812 189.93C176.229 174.881 185.715 161.362 197.663 151.34C201.535 148.133 207.686 148.355 215.408 150.827C223.093 153.287 232.134 157.91 241.599 163.197C245.65 165.459 249.785 167.848 253.92 170.235C259.415 173.409 264.908 176.581 270.199 179.457C279.479 184.499 288.234 188.683 295.477 190.441L295.482 190.442C301.721 191.892 307.178 191.676 310.628 188.23C345.18 154.19 392.846 151.202 436.271 163.511L436.275 163.513C450.446 167.396 465.585 173.424 480.725 187.86C481.019 188.154 481.287 188.404 481.549 188.648L481.553 188.652C481.818 188.899 482.077 189.141 482.359 189.424L482.361 189.426C502.196 209.031 515.722 236.979 522.568 264.14C529.417 291.318 529.553 317.601 522.728 333.883L523.19 334.076L522.728 333.883C515.849 350.333 504.632 360.96 492.789 370.936C491.13 372.333 489.458 373.718 487.784 375.105C477.524 383.604 467.182 392.172 459.259 404.053L459.257 404.056C454.438 411.424 450.468 418.991 447.263 427.035C438.648 448.628 435.251 472.752 433.92 496.76C433.042 512.594 433.062 528.409 433.081 543.42C433.091 551.158 433.1 558.682 432.987 565.885L432.987 565.886C432.885 573.026 433.016 581.105 433.156 589.802C433.487 610.357 433.874 634.359 431.394 657.546C427.864 690.545 418.542 721.674 395.156 738.69L395.155 738.691C374.56 753.751 346.602 752.006 323 745.338Z" stroke="#FCE0C5" stroke-miterlimit="10"/>
<path d="M444.416 570.024L444.416 570.026C444.316 577.53 444.456 586.022 444.606 595.166C444.966 617.096 445.387 642.78 442.724 667.596C438.95 702.765 428.996 735.972 404.059 754.111C382.182 769.912 352.447 768.052 327.053 760.819C309.093 755.684 292.012 748.384 274.932 741.021L273.638 740.463C256.999 733.289 240.341 726.106 222.899 720.894C204.932 715.233 189.034 713.175 173.965 713.845L173.963 713.845C139.333 715.484 110.266 731.824 75.2584 754.549C37.5057 778.963 0.63378 780.172 -32.2539 767.657C-65.1658 755.132 -94.1186 728.847 -115.943 698.227L-115.943 698.227C-132.457 675.121 -147.241 650.355 -157.336 623.579L-157.336 623.579C-159.674 617.391 -162.296 610.688 -165.075 603.582C-176.334 574.795 -190.178 539.399 -198.222 504.871C-203.235 483.349 -205.986 462.197 -204.46 443.222C-202.935 424.25 -197.137 407.485 -185.08 394.69L-185.079 394.689C-182.79 392.241 -179.461 390.605 -175.287 389.609C-171.114 388.614 -166.134 388.268 -160.588 388.373C-149.495 388.583 -136.233 390.595 -122.82 392.737C-121.778 392.904 -120.735 393.071 -119.692 393.238C-107.33 395.22 -94.9791 397.201 -84.2805 397.849C-78.478 398.201 -73.1418 398.163 -68.539 397.516C-63.9403 396.869 -60.0354 395.61 -57.128 393.489L-57.1273 393.488C-42.2042 382.564 -28.6209 370.674 -15.1694 358.901C-8.63836 353.184 -2.13836 347.495 4.46879 341.956C24.7028 324.995 45.9884 309.404 72.4003 298.599C103.557 285.9 121.132 253.613 137.281 219.32C139.193 215.259 141.085 211.17 142.978 207.08C149.091 193.869 155.208 180.651 162.012 168.362C170.92 152.272 180.982 137.821 193.702 127.125L193.702 127.125C197.797 123.677 204.318 123.936 212.51 126.617C220.662 129.285 230.264 134.284 240.326 139.997C244.565 142.404 248.892 144.94 253.22 147.479C259.139 150.949 265.061 154.422 270.772 157.569C280.664 163.019 290.011 167.545 297.771 169.462C304.514 171.326 310.141 170.996 313.953 167.352L313.958 167.347C350.863 131.033 401.519 128.143 447.769 141.11C462.89 145.363 478.977 151.76 495.177 167.187L495.188 167.197L495.198 167.206C495.659 167.598 496.222 168.161 496.806 168.746L496.808 168.747C517.9 189.683 532.327 219.51 539.641 248.487C546.958 277.48 547.127 305.513 539.825 322.87L539.824 322.872C532.516 340.483 520.597 351.8 507.995 362.414C506.205 363.921 504.401 365.415 502.594 366.911C491.693 375.934 480.695 385.038 472.216 397.713C467.025 405.3 462.885 413.426 459.513 422.021C450.336 444.967 446.758 470.681 445.374 496.288C444.476 512.896 444.501 529.492 444.525 545.266C444.538 553.802 444.55 562.098 444.416 570.024Z" stroke="#FCE0C5" stroke-miterlimit="10"/>
<path d="M485.139 390.481C467.76 416.455 460.655 448.063 457.78 480.255C455.752 502.968 455.827 526.017 455.898 547.606C455.927 556.606 455.955 565.353 455.83 573.715L455.83 573.716C455.731 581.657 455.888 590.66 456.056 600.366C456.461 623.641 456.935 650.956 454.126 677.348C450.145 714.75 439.583 750.077 413.048 769.254C389.621 786.179 358.01 784.032 331.105 776.3L330.967 776.78L331.105 776.3C312.108 770.85 294.032 763.095 275.957 755.223C275.134 754.865 274.311 754.506 273.488 754.148C256.243 746.632 238.96 739.1 220.885 733.482L220.737 733.96L220.885 733.482C189.399 723.712 163.638 723.901 139.064 730.892C114.512 737.876 91.1722 751.643 64.5279 768.968C24.4008 794.981 -14.7804 796.211 -49.7373 782.863C-84.7186 769.505 -115.5 741.534 -138.738 709.101C-156.324 684.56 -172.098 658.08 -182.999 629.485C-185.518 622.812 -188.357 615.562 -191.371 607.862C-203.285 577.43 -217.947 539.976 -226.516 503.414C-231.884 480.512 -234.852 457.993 -233.262 437.799C-231.672 417.609 -225.53 399.775 -212.706 386.195L-212.705 386.194C-210.282 383.611 -206.745 381.893 -202.306 380.857C-197.869 379.821 -192.569 379.475 -186.666 379.607C-174.856 379.872 -160.728 382.048 -146.441 384.356C-145.389 384.526 -144.336 384.697 -143.283 384.868C-130.055 387.012 -116.834 389.155 -105.393 389.866C-99.2152 390.249 -93.5372 390.216 -88.6436 389.534C-83.7543 388.853 -79.6092 387.52 -76.5305 385.271L-76.5298 385.271C-60.7642 373.718 -46.3898 361.145 -32.1478 348.687C-25.1293 342.548 -18.1429 336.437 -11.0381 330.49C10.5028 312.461 33.1802 295.895 61.2979 284.447C94.345 271 112.926 236.645 129.971 200.15C132.002 195.802 134.011 191.422 136.021 187.043C142.458 173.013 148.897 158.978 156.062 145.933C165.46 128.822 176.082 113.463 189.527 102.12L189.527 102.12C192.158 99.8959 195.751 99.1369 200.151 99.5469C204.554 99.957 209.706 101.533 215.375 103.906C226.595 108.603 239.713 116.364 252.851 124.137L253.262 124.38C266.517 132.222 279.774 140.045 291.023 144.636C296.647 146.932 301.804 148.435 306.232 148.716C310.666 148.998 314.424 148.055 317.161 145.394L317.162 145.393C356.334 107.083 410.066 104.018 459.053 117.917L459.055 117.917C475.019 122.366 492.151 129.301 509.412 145.718L509.413 145.719C532.538 167.646 548.317 199.601 556.355 230.786C564.398 261.987 564.664 292.305 556.89 310.962C549.104 329.649 536.438 341.683 523.064 352.971C521.179 354.562 519.279 356.138 517.377 357.717C505.798 367.326 494.125 377.013 485.139 390.481ZM485.139 390.481L485.555 390.759M485.139 390.481C485.139 390.481 485.139 390.481 485.139 390.482L485.555 390.759M485.555 390.759C456.03 434.886 456.227 495.413 456.398 547.579C456.427 556.585 456.456 565.342 456.33 573.723L-76.8254 384.867C-61.0765 373.327 -46.7311 360.779 -32.4991 348.33C-4.22179 323.595 23.6081 299.252 61.1094 283.984C97.8532 269.032 116.659 228.044 135.561 186.846C150.446 154.402 165.392 121.827 189.205 101.738C200.227 92.4206 226.697 108.082 253.084 123.694C279.76 139.477 306.351 155.209 316.812 145.035C356.161 106.554 410.105 103.509 459.19 117.436C475.203 121.898 492.418 128.865 509.757 145.356C556.182 189.375 573.02 273.55 557.352 311.154C548.411 332.611 533.077 345.337 517.689 358.108C506.108 367.719 494.497 377.356 485.555 390.759Z" stroke="#FCE0C5" stroke-miterlimit="10"/>
</svg>
