<svg width="413" height="234" viewBox="0 0 413 234" fill="none" xmlns="http://www.w3.org/2000/svg">
<path d="M431.671 283.111L431.673 283.113C438.831 289.147 441.901 299.498 443.275 310.581C444.187 317.934 444.345 325.513 444.486 332.282C444.557 335.719 444.625 338.947 444.784 341.831C444.889 343.959 444.973 346.156 445.058 348.398C445.269 353.934 445.491 359.749 446.069 365.5C446.881 373.585 448.402 381.6 451.612 388.646C452.756 391.395 454.283 393.896 456.087 396.32C458.859 400.155 462.335 403.012 465.743 405.815C466.399 406.354 467.053 406.892 467.698 407.434C471.716 410.806 475.467 414.382 477.853 419.79L477.854 419.794C480.358 425.36 480.552 434.244 478.385 443.415C476.221 452.571 471.728 461.91 464.974 468.386L464.923 468.435L464.901 468.473C464.9 468.474 464.9 468.474 464.899 468.475C464.88 468.49 464.865 468.501 464.842 468.518C464.824 468.531 464.801 468.547 464.768 468.572C464.649 468.661 464.49 468.792 464.352 469.005C459.255 473.663 454.07 475.595 449.344 476.693L449.336 476.695C433.446 480.681 416.908 478.78 404.771 466.814L404.763 466.805L404.762 466.805C403.349 465.48 401.596 465.255 399.451 465.16L399.437 465.159L399.423 465.159C396.823 465.19 393.77 465.952 390.579 466.972C388.599 467.605 386.535 468.348 384.474 469.09C383.218 469.543 381.963 469.994 380.731 470.42C377.454 471.552 374.306 472.51 371.547 472.878C368.778 473.248 366.497 473.009 364.873 471.863L364.872 471.862C356.533 466.014 350.614 456.74 344.624 447.354C344.065 446.479 343.506 445.603 342.944 444.728C336.39 434.527 329.479 424.57 318.995 419.559C311.512 415.919 305.076 411.183 298.754 406.078C296.831 404.526 294.916 402.937 292.985 401.335C288.58 397.681 284.092 393.957 279.234 390.436M431.671 283.111L278.939 390.84M431.671 283.111C425.118 277.546 416.447 277.207 408.517 278.311C402.424 279.212 396.332 281.142 390.129 283.269C389.02 283.649 387.907 284.036 386.79 284.424C381.673 286.202 376.471 288.01 371.159 289.366L431.671 283.111ZM279.234 390.436C279.234 390.435 279.233 390.435 279.233 390.435L278.939 390.84M279.234 390.436C279.234 390.436 279.234 390.436 279.235 390.436L278.939 390.84M279.234 390.436C277.254 388.986 274.197 388.489 270.75 388.395C267.601 388.31 264.024 388.562 260.46 388.812C260.098 388.838 259.736 388.863 259.374 388.889C255.439 389.162 251.577 389.392 248.302 389.144C245.005 388.894 242.437 388.166 240.971 386.641M278.939 390.84C275.417 388.261 267.991 388.784 260.492 389.311C252.271 389.89 243.961 390.475 240.609 386.986M240.971 386.641C240.971 386.641 240.971 386.642 240.972 386.642L240.609 386.986M240.971 386.641C240.97 386.641 240.97 386.64 240.969 386.64L240.609 386.986M240.971 386.641L240.609 386.986M258.809 293.83C258.809 293.831 258.809 293.831 258.808 293.832L258.403 293.539L258.811 293.829C258.81 293.829 258.81 293.83 258.809 293.83Z" stroke="#CDDFE9" stroke-miterlimit="10"/>
<path d="M456.114 337.862L456.114 337.859C455.979 334.614 455.944 330.984 455.907 327.113C455.827 318.9 455.737 309.601 454.662 300.589C453.079 287.332 449.377 274.907 440.583 267.697C432.752 261.389 422.304 261.161 412.585 262.828C405.4 264.129 398.31 266.513 391.135 269.107C389.789 269.593 388.44 270.087 387.087 270.583C381.238 272.725 375.313 274.894 369.251 276.605C361.854 278.771 355.238 279.563 349.025 279.207L349.019 279.207C334.751 278.242 322.99 270.881 309.122 262.203L308.47 261.795L308.47 261.794C294.7 253.166 280.951 252.516 268.518 256.945C256.067 261.381 244.908 270.923 236.396 282.718C230.152 291.423 224.654 300.53 220.996 310.23L220.995 310.233C220.876 310.541 220.757 310.853 220.636 311.167C216.029 323.131 209.93 338.971 207.098 354.252C204.187 369.961 204.763 384.896 213.74 394.45C215.517 396.267 218.663 397.067 222.686 397.268C226.685 397.468 231.409 397.071 236.207 396.624C236.613 396.587 237.02 396.549 237.427 396.51C241.808 396.099 246.201 395.687 250.049 395.708C254.229 395.73 257.9 396.259 260.228 397.968L260.23 397.969C265.802 402.097 270.947 406.435 275.993 410.688C278.549 412.843 281.079 414.976 283.627 417.05C291.219 423.229 298.999 428.912 308.184 433.193L308.187 433.194C320.43 438.991 328.256 450.974 335.661 463.349C336.337 464.48 337.01 465.614 337.682 466.747C344.404 478.071 351.076 489.314 360.72 496.425L360.723 496.427C362.56 497.801 365.219 498.022 368.487 497.462C371.741 496.904 375.483 495.593 379.38 494.048C381.02 493.398 382.697 492.703 384.371 492.008C386.644 491.066 388.913 490.125 391.086 489.299C394.867 487.861 398.463 486.729 401.485 486.481C404.187 486.161 406.294 486.603 407.888 488.026L407.898 488.034L407.907 488.043C422.209 502.172 442.1 504.188 460.632 499.44C466.314 497.973 472.45 495.67 478.609 490.018C478.661 489.947 478.72 489.888 478.763 489.847C478.825 489.787 478.895 489.728 478.951 489.68L478.956 489.676C479.019 489.623 479.067 489.581 479.105 489.545C479.128 489.523 479.139 489.51 479.142 489.506L479.172 489.455L479.224 489.406C487.325 481.653 492.721 470.435 495.352 459.462C497.986 448.475 497.825 437.839 494.933 431.25C492.027 424.628 487.484 420.309 482.66 416.271C481.897 415.633 481.127 415.001 480.354 414.367C476.258 411.008 472.11 407.606 468.842 402.997C466.762 400.177 465.071 397.123 463.667 394.011L463.667 394.01C459.849 385.468 458.172 375.815 457.342 366.118C456.802 359.818 456.619 353.467 456.444 347.382C456.35 344.115 456.258 340.925 456.114 337.862Z" stroke="#CDDFE9" stroke-miterlimit="10"/>
<path d="M512.295 442.642L512.297 442.646C515.666 450.309 515.795 462.695 512.692 475.498C509.593 488.286 503.296 501.385 493.936 510.469L493.886 510.518L493.851 510.578C493.8 510.667 493.741 510.72 493.621 510.822L493.611 510.831C493.503 510.923 493.35 511.053 493.217 511.258C486.002 517.892 478.923 520.562 472.293 522.397C450.84 527.971 428.062 525.882 411.595 509.593C409.885 507.846 407.162 507.567 404.225 507.949M512.295 442.642L404.288 508.445M512.295 442.642C509.002 434.999 503.759 429.991 498.163 425.279C497.289 424.543 496.405 423.813 495.518 423.081C490.749 419.144 485.902 415.143 482.062 409.716M512.295 442.642L482.469 409.424M404.225 507.949C404.225 507.949 404.224 507.949 404.224 507.949L404.288 508.445M404.225 507.949C404.226 507.949 404.226 507.949 404.227 507.949L404.288 508.445M404.225 507.949C400.732 508.382 396.559 509.854 392.162 511.688C389.623 512.747 386.977 513.94 384.328 515.135C382.397 516.006 380.464 516.878 378.571 517.698C374.053 519.656 369.72 521.34 365.972 522.133C362.206 522.93 359.164 522.798 357.111 521.299M404.288 508.445C398.892 509.114 391.758 512.332 384.548 515.584C373.476 520.579 362.224 525.655 356.813 521.701M357.111 521.299C357.112 521.3 357.113 521.301 357.114 521.302L356.813 521.701M357.111 521.299C357.11 521.299 357.109 521.298 357.108 521.297L356.813 521.701M357.111 521.299C346.253 513.091 338.868 499.95 331.427 486.711C330.606 485.25 329.784 483.788 328.957 482.332C320.669 467.734 311.836 453.673 297.642 447.212L297.641 447.211C286.754 442.289 277.609 435.591 268.745 428.334C265.902 426.007 263.084 423.618 260.246 421.213C254.253 416.133 248.171 410.978 241.573 406.16C238.898 404.193 234.609 403.643 229.69 403.703C225.215 403.757 220.102 404.321 214.991 404.885C214.45 404.945 213.91 405.005 213.37 405.064C207.709 405.683 202.133 406.236 197.43 406.053C192.699 405.87 189.006 404.945 186.966 402.755L186.963 402.752C176.452 391.631 176.028 373.994 179.661 355.495C183.045 338.27 189.91 320.471 195.168 306.84C195.547 305.857 195.918 304.896 196.278 303.958C200.643 292.608 207.132 281.786 214.169 271.709C224.002 258.049 236.919 246.838 251.404 241.579C265.87 236.326 281.927 236.995 298.12 247.138C314.375 257.434 327.93 265.964 344.384 266.933C351.527 267.369 359.174 266.487 367.521 263.951C367.522 263.951 367.523 263.951 367.523 263.95L367.378 263.472L356.813 521.701M476.098 399.127C471.77 389.149 469.84 377.925 468.91 366.656C468.249 358.657 468.091 350.606 467.94 342.954C467.879 339.833 467.818 336.779 467.726 333.821C467.595 330.178 467.575 326.086 467.555 321.707C467.509 312.129 467.457 301.181 466.212 290.579C464.397 275.131 460.063 260.632 449.674 252.386C440.301 244.957 427.885 245.178 416.646 247.346L476.557 398.928M476.098 399.127L476.557 398.928M476.098 399.127C476.098 399.127 476.098 399.126 476.097 399.125L476.557 398.928M476.098 399.127C477.672 402.798 479.715 406.513 482.062 409.716M476.557 398.928C478.118 402.571 480.145 406.255 482.469 409.424M482.062 409.716C482.062 409.715 482.061 409.714 482.06 409.713L482.469 409.424M482.062 409.716C482.063 409.717 482.064 409.718 482.065 409.72L482.469 409.424" stroke="#CDDFE9" stroke-miterlimit="10"/>
<path d="M458.479 237.137L458.484 237.14C470.558 246.477 475.479 263.023 477.468 280.656C478.811 292.563 478.81 304.863 478.809 315.671C478.809 320.871 478.808 325.726 478.958 330.027M458.479 237.137L479.457 330.009M458.479 237.137C447.927 228.799 433.456 229.198 420.706 231.864C411.396 233.879 402.312 237.282 393.153 240.875C392.045 241.309 390.936 241.747 389.826 242.184C381.765 245.364 373.621 248.576 365.232 250.983C355.765 253.778 347.272 254.858 339.195 254.342C320.78 253.384 305.574 243.901 287.122 232.335L287.119 232.333C268.602 220.508 250.216 219.75 233.672 225.8C217.107 231.858 202.36 244.755 191.205 260.282L191.203 260.284C182.814 271.858 175.436 284.22 170.548 297.322L170.547 297.324C169.828 299.231 169.067 301.226 168.277 303.296C162.498 318.45 155.178 337.639 151.365 356.269C147.025 377.475 147.274 397.747 159.269 410.524L159.271 410.525C161.53 412.953 165.743 413.918 171.17 414.032C176.564 414.146 182.989 413.419 189.515 412.627C190.03 412.565 190.547 412.502 191.063 412.439C197.063 411.706 203.079 410.972 208.323 410.857C211.173 410.794 213.813 410.914 216.113 411.321C218.409 411.727 220.397 412.426 221.918 413.546C229.536 419.113 236.513 425.082 243.382 430.959C246.596 433.708 249.786 436.438 253.007 439.096C263.129 447.45 273.593 455.138 286.183 460.702L286.186 460.703C302.276 467.914 312.069 484.022 321.231 500.808C322.168 502.525 323.098 504.249 324.028 505.972C327.657 512.696 331.278 519.407 335.26 525.626C340.259 533.434 345.802 540.429 352.589 545.648L458.479 237.137ZM478.958 330.027L479.457 330.009M478.958 330.027C478.958 330.026 478.958 330.026 478.958 330.025L479.457 330.009M478.958 330.027C479.072 333.656 479.14 337.416 479.209 341.262C479.36 349.713 479.519 358.582 480.203 367.405C481.198 380.252 483.308 393.065 488.148 404.48M479.457 330.009C479.572 333.653 479.64 337.421 479.709 341.272C480.081 362.011 480.495 385.152 488.61 404.288M488.148 404.48C488.148 404.48 488.148 404.479 488.148 404.479L488.61 404.288M488.148 404.48C488.149 404.481 488.149 404.482 488.15 404.484L488.61 404.288M488.148 404.48L488.61 404.288M508.122 531.627C508.138 531.616 508.154 531.606 508.17 531.596L508.434 532.02L508.086 531.661C508.098 531.65 508.11 531.638 508.122 531.627ZM483.312 545.207C483.312 545.207 483.313 545.207 483.313 545.207L483.44 545.691L483.309 545.208C483.31 545.208 483.311 545.208 483.312 545.207ZM406.13 529.166C406.134 529.165 406.138 529.165 406.142 529.164L406.21 529.659L406.118 529.168C406.122 529.167 406.126 529.167 406.13 529.166Z" stroke="#CDDFE9" stroke-miterlimit="10"/>
<path d="M424.664 216.553L424.667 216.552C439.016 213.218 455.27 212.702 467.473 221.998M424.664 216.553L467.777 221.601M424.664 216.553C414.316 218.883 404.259 222.698 394.141 226.736C392.716 227.305 391.289 227.878 389.86 228.452C381.158 231.95 372.375 235.48 363.324 238.221C352.804 241.56 343.279 242.73 334.456 242.239L334.454 242.239C313.997 241.014 296.865 230.649 276.488 217.743L276.487 217.742C255.546 204.403 234.852 203.625 216.274 210.499C197.675 217.382 181.17 231.949 168.693 249.341L168.691 249.344C159.229 262.353 150.96 276.258 145.364 291.01C144.462 293.394 143.498 295.902 142.495 298.515C135.993 315.447 127.794 336.797 123.426 357.533C118.377 381.503 118.496 404.435 132.023 418.781C133.303 420.136 135.139 421.08 137.444 421.691C139.748 422.303 142.491 422.574 145.548 422.606C151.665 422.67 158.951 421.776 166.34 420.812C166.901 420.738 167.463 420.665 168.024 420.591C174.842 419.696 181.672 418.8 187.614 418.619C190.831 418.52 193.807 418.63 196.393 419.069C198.976 419.507 201.203 420.278 202.896 421.526C211.253 427.655 218.946 434.253 226.543 440.768C230.269 443.964 233.973 447.141 237.721 450.232C249.126 459.641 260.981 468.303 275.276 474.509L275.276 474.51C293.221 482.331 304 500.444 314.035 519.418C315.125 521.48 316.207 523.552 317.288 525.623C321.195 533.107 325.096 540.581 329.386 547.516C334.861 556.367 340.946 564.301 348.434 570.209L348.434 570.21C350.923 572.176 354.72 572.246 359.468 571.037C364.189 569.835 369.693 567.408 375.447 564.606C377.829 563.446 380.26 562.219 382.692 560.992C386.106 559.269 389.521 557.545 392.805 556.005C398.435 553.366 403.773 551.221 408.234 550.486L408.239 550.485M424.664 216.553L408.239 550.485M467.473 221.998C467.473 221.998 467.474 221.998 467.474 221.999L467.777 221.601M467.473 221.998C467.473 221.998 467.473 221.998 467.472 221.997L467.777 221.601M467.473 221.998C481.096 232.458 486.649 251.081 488.869 270.903C490.399 284.56 490.341 298.682 490.289 310.988C490.266 316.543 490.245 321.728 490.372 326.332M467.777 221.601C491.086 239.497 490.915 280.849 490.79 311.03C490.767 316.575 490.745 321.743 490.871 326.319M490.372 326.332C490.372 326.332 490.372 326.332 490.372 326.331L490.871 326.319M490.372 326.332L490.871 326.319M490.372 326.332L490.871 326.319M408.239 550.485C412.001 549.909 415.31 550.039 417.483 552.289L408.239 550.485ZM507.457 423.689C507.457 423.689 507.457 423.688 507.457 423.688L507.868 423.403L507.458 423.69C507.458 423.689 507.458 423.689 507.457 423.689ZM546.075 465.8C546.075 465.8 546.075 465.8 546.075 465.799L546.535 465.604L546.076 465.803C546.076 465.802 546.076 465.801 546.075 465.8ZM522.271 552.819C522.287 552.809 522.303 552.798 522.32 552.787L522.584 553.212L522.234 552.855C522.246 552.843 522.258 552.831 522.271 552.819ZM494.509 568.124L494.64 568.606L494.503 568.125C494.504 568.125 494.506 568.125 494.507 568.124C494.508 568.124 494.509 568.124 494.509 568.124Z" stroke="#CDDFE9" stroke-miterlimit="10"/>
<path d="M428.722 201.07L428.723 201.07C444.584 197.237 462.894 196.542 476.278 206.748L476.28 206.75C491.592 218.3 497.777 239 500.207 260.998C501.881 276.161 501.765 291.837 501.664 305.449C501.618 311.585 501.576 317.301 501.702 322.363L501.702 322.363C501.825 327.117 501.875 332.062 501.927 337.133C502.031 347.368 502.141 358.114 502.861 368.83C503.939 384.867 506.387 400.903 512.253 415.197L512.254 415.199C514.518 420.642 517.263 425.673 520.389 430.461L520.396 430.471C525.751 438.27 532.647 443.953 539.475 449.579C540.663 450.558 541.849 451.536 543.024 452.522C550.972 459.192 558.478 466.306 563.156 477.261C567.821 488.185 567.874 505.782 563.384 523.953C558.901 542.093 549.915 560.699 536.618 573.669C536.389 573.824 536.196 574.038 536.051 574.199L536.032 574.22C535.85 574.421 535.728 574.55 535.609 574.624L535.567 574.651L535.53 574.685C525.403 584.25 515.089 588.269 505.807 590.868C476.054 598.964 443.956 596.514 420.799 573.62C418.449 571.275 414.791 570.921 410.609 571.742C405.678 572.662 399.776 575.152 393.549 578.192C389.951 579.948 386.213 581.905 382.476 583.861C379.752 585.287 377.029 586.712 374.361 588.06C368.004 591.27 361.926 594.057 356.717 595.467C351.481 596.884 347.291 596.864 344.557 594.7C336.299 588.119 329.631 579.265 323.657 569.388C318.984 561.661 314.75 553.334 310.511 544.998C309.329 542.674 308.147 540.349 306.955 538.036C296.047 516.874 284.308 496.717 264.47 488.146L264.468 488.145C248.378 481.245 235.203 471.592 222.562 461.099C218.445 457.682 214.381 454.172 210.29 450.638C201.836 443.336 193.268 435.936 183.89 429.058M428.722 201.07L183.593 429.46M428.722 201.07C417.286 203.801 406.208 208.112 395.13 212.596C393.909 213.091 392.688 213.587 391.467 214.083C381.615 218.088 371.732 222.105 361.603 225.12M428.722 201.07L361.457 224.642M183.89 429.058C183.89 429.057 183.889 429.057 183.889 429.057L183.593 429.46M183.89 429.058C183.89 429.058 183.89 429.058 183.89 429.058L183.593 429.46M183.89 429.058C182.025 427.681 179.559 426.838 176.69 426.368C173.818 425.897 170.507 425.796 166.922 425.929C160.325 426.173 152.736 427.215 145.152 428.257C144.499 428.346 143.846 428.436 143.194 428.525C134.948 429.652 126.811 430.697 119.985 430.659C116.573 430.639 113.511 430.349 110.94 429.674C108.369 428.998 106.319 427.945 104.894 426.421L104.892 426.419C89.8316 410.504 89.8889 384.937 95.6803 358.252C100.58 335.674 109.547 312.457 116.712 293.906C118.004 290.56 119.238 287.365 120.379 284.353M183.593 429.46C176.765 424.421 161.047 426.579 145.215 428.753C128.08 431.106 110.811 433.477 104.529 426.763C76.3601 396.995 100.628 334.161 116.248 293.718C117.54 290.373 118.773 287.182 119.912 284.175M120.379 284.353C120.379 284.353 120.378 284.354 120.378 284.354L119.912 284.175M120.379 284.353C120.379 284.353 120.379 284.352 120.379 284.352L119.912 284.175M120.379 284.353C126.682 267.952 135.843 252.503 146.197 237.95M119.912 284.175C126.235 267.721 135.421 252.234 145.79 237.66M145.79 237.66L146.196 237.951C146.197 237.951 146.197 237.95 146.197 237.95M145.79 237.66C173.563 198.864 219.136 172.401 266.322 202.386M145.79 237.66L146.197 237.95C146.197 237.95 146.197 237.95 146.197 237.95M146.197 237.95C160.045 218.607 178.308 202.371 198.95 194.699C219.571 187.035 242.596 187.902 266.053 202.807M266.322 202.386L266.053 202.807M266.322 202.386C288.815 216.743 307.589 227.811 329.858 229.016M266.322 202.386L266.054 202.808C266.053 202.808 266.053 202.807 266.053 202.807M266.053 202.807C288.534 217.157 307.412 228.301 329.829 229.515M329.858 229.016L329.829 229.515M329.858 229.016C339.547 229.584 349.859 228.227 361.457 224.642M329.858 229.016L329.831 229.516C329.831 229.516 329.83 229.516 329.829 229.515M329.829 229.515C339.587 230.087 349.959 228.719 361.603 225.12M361.457 224.642L361.599 225.121C361.6 225.121 361.602 225.12 361.603 225.12M361.457 224.642L361.604 225.12C361.604 225.12 361.603 225.12 361.603 225.12" stroke="#CDDFE9" stroke-miterlimit="10"/>
<path d="M432.779 185.588L432.783 185.587C450.245 181.086 470.336 180.274 485.37 191.437C502.278 204.024 509.071 226.842 511.731 251.088C513.544 267.617 513.43 284.701 513.33 299.551C513.284 306.485 513.241 312.933 513.399 318.608C513.506 323.735 513.534 329.074 513.562 334.555C513.622 345.847 513.684 357.738 514.445 369.605C515.575 387.243 518.25 404.896 524.771 420.597C527.201 426.588 530.117 432.181 533.804 437.301C539.665 445.891 547.235 452.155 554.739 458.365C556.022 459.426 557.303 460.486 558.574 461.556C567.293 468.9 575.547 476.731 580.703 488.762C585.846 500.761 585.866 520.108 580.907 540.095C575.954 560.061 566.059 580.557 551.492 594.858C551.235 595.079 551.051 595.283 550.886 595.466L550.88 595.472C550.711 595.66 550.561 595.825 550.348 596.006L550.339 596.014L550.329 596.023C539.142 606.576 527.882 610.962 517.756 613.758C485.362 622.616 450.091 620.16 424.581 594.994L424.572 594.985C421.854 592.436 417.917 592.151 413.175 593.103C407.795 594.166 401.322 596.983 394.478 600.419C390.534 602.399 386.434 604.602 382.333 606.805C379.325 608.421 376.316 610.037 373.368 611.566C366.374 615.194 359.685 618.349 353.97 619.961C348.223 621.583 343.637 621.594 340.683 619.194L340.681 619.192C331.652 611.939 324.407 602.153 317.942 591.236C312.906 582.73 308.356 573.564 303.803 564.392C302.51 561.787 301.217 559.181 299.912 556.59C288.143 533.219 275.443 511.016 253.661 501.782C235.866 494.24 221.325 483.57 207.389 471.987C202.971 468.314 198.609 464.546 194.222 460.756C184.792 452.609 175.249 444.363 164.783 436.76M432.779 185.588L164.488 437.163M432.779 185.588C420.256 188.72 408.204 193.553 396.128 198.548C395.098 198.974 394.068 199.401 393.038 199.828C381.994 204.407 370.894 209.009 359.401 212.428C346.63 216.288 335.232 217.747 324.73 217.201M432.779 185.588L324.73 217.201M164.783 436.76C164.783 436.76 164.782 436.759 164.782 436.759L164.488 437.163M164.783 436.76C164.784 436.76 164.784 436.761 164.785 436.761L164.488 437.163M164.783 436.76C162.746 435.256 160.043 434.341 156.888 433.839C153.73 433.337 150.083 433.245 146.13 433.413C138.836 433.724 130.434 434.928 122.034 436.132C121.334 436.232 120.635 436.333 119.937 436.432C110.828 437.732 101.831 438.944 94.2803 438.955C90.5067 438.961 87.117 438.666 84.2689 437.942C81.4204 437.218 79.146 436.073 77.5635 434.401M164.488 437.163C156.993 431.628 139.611 434.119 122.099 436.628C103.192 439.337 84.133 442.068 77.2002 434.744M77.5635 434.401C77.5638 434.401 77.564 434.401 77.5642 434.402L77.2002 434.744M77.5635 434.401C61.0177 416.829 61.2072 388.599 67.6825 359.195C73.1094 334.551 82.9131 309.243 90.7598 288.987C92.2645 285.103 93.6973 281.404 95.0134 277.931L95.0136 277.931C101.939 259.608 112.171 242.725 123.502 226.904L123.502 226.904C138.671 205.695 158.763 187.773 181.462 179.29C204.139 170.814 229.448 171.744 255.138 188.28L255.138 188.281C279.72 204.071 300.249 216.17 324.73 217.201M77.5635 434.401C77.5635 434.401 77.5634 434.401 77.5633 434.401L77.2002 434.744M77.2002 434.744L324.73 217.201" stroke="#CDDFE9" stroke-miterlimit="10"/>
<path d="M436.836 170.106L436.835 170.107C423.224 173.639 410.152 178.969 397.067 184.494C395.729 185.06 394.389 185.627 393.05 186.195C381.306 191.171 369.506 196.171 357.291 200.01L357.289 200.011C343.572 204.24 331.325 205.896 319.888 205.27C293.183 203.866 271.19 190.923 244.408 173.862L244.407 173.861C216.201 155.758 188.537 154.782 163.804 164.068C139.048 173.364 117.198 192.955 100.708 216.029L100.707 216.03C88.3066 233.282 77.3649 251.814 69.7312 271.789C68.2406 275.712 66.6105 279.903 64.8956 284.312C56.3207 306.356 45.6246 333.854 39.6446 360.629C32.4608 392.795 32.1396 423.688 50.2188 442.83C51.959 444.65 54.4572 445.89 57.5798 446.666C60.7023 447.443 64.4163 447.748 68.5479 447.724C76.8143 447.677 86.6626 446.314 96.6281 444.852C97.426 444.735 98.2246 444.617 99.0231 444.5C108.181 443.15 117.334 441.802 125.282 441.419C129.605 441.21 133.59 441.286 137.042 441.808C140.489 442.329 143.439 443.3 145.66 444.91L145.663 444.912C156.807 453.106 166.992 461.953 177.057 470.696C182.029 475.015 186.972 479.308 191.987 483.485C207.17 496.131 223.057 507.749 242.557 515.934L242.558 515.934C266.14 525.863 279.825 550.066 292.48 575.605C293.918 578.507 295.343 581.427 296.768 584.347C301.625 594.3 306.48 604.25 311.855 613.49C318.803 625.435 326.594 636.15 336.324 644.093C339.525 646.692 344.511 646.619 350.756 644.773C356.967 642.937 364.243 639.4 371.853 635.342C375.076 633.624 378.365 631.808 381.654 629.992C386.101 627.537 390.547 625.083 394.827 622.87C402.277 619.018 409.319 615.845 415.17 614.597C420.293 613.408 424.711 613.724 427.52 616.569C455.382 644.005 493.727 646.635 528.855 636.846C539.914 633.686 552.101 628.94 564.33 617.434C564.671 616.876 565.184 616.44 565.626 616.065L565.643 616.05C581.557 600.471 592.354 578.097 597.774 556.316C603.2 534.514 603.214 513.415 597.684 500.394L597.684 500.393C592.099 487.201 583.144 478.68 573.665 470.698C572.264 469.518 570.85 468.35 569.435 467.179C561.288 460.444 553.06 453.64 546.642 444.255C542.603 438.473 539.52 432.328 536.826 425.961L536.823 425.954C529.839 408.73 527.007 389.445 525.824 370.205C525.043 357.516 524.979 344.816 524.918 332.733C524.887 326.509 524.856 320.449 524.729 314.638C524.592 308.656 524.654 301.878 524.722 294.589C524.873 278.249 525.048 259.339 523.048 241.059C520.156 214.623 512.731 189.727 494.273 176.016L494.273 176.015C478.059 163.945 455.814 165.105 436.836 170.106ZM436.709 169.623C455.727 164.611 478.168 163.403 494.571 175.614L436.709 169.623Z" stroke="#CDDFE9" stroke-miterlimit="10"/>
<path d="M440.891 154.625L440.89 154.625C426.191 158.558 412.124 164.343 398.033 170.287C396.964 170.738 395.895 171.19 394.826 171.642C381.806 177.145 368.723 182.675 355.104 186.87L355.102 186.871C340.255 191.362 327.263 193.042 314.803 192.507L314.8 192.507C286.134 191.114 262.394 177.391 233.508 158.887L233.506 158.886C202.976 139.099 173.029 138.06 146.263 148.171C119.473 158.291 95.8397 179.594 78.0279 204.533L78.0269 204.535C64.4519 223.398 52.4385 243.365 44.2822 265.09L43.8141 264.914L44.2822 265.09C42.4995 269.835 40.5212 274.944 38.4311 280.342C29.3042 303.912 18.0454 332.989 11.6315 361.335C3.7408 396.207 3.24165 429.737 22.8075 450.536C24.67 452.511 27.3646 453.851 30.7424 454.684C34.1192 455.518 38.1446 455.837 42.6269 455.798C51.5943 455.72 62.2992 454.209 73.1333 452.592C73.9874 452.464 74.8422 452.336 75.6971 452.208C85.6685 450.713 95.6359 449.219 104.285 448.78C108.982 448.541 113.309 448.613 117.051 449.169C120.789 449.725 123.979 450.77 126.372 452.508L126.373 452.508C138.603 461.426 149.761 471.117 160.8 480.704C166.07 485.28 171.313 489.833 176.632 494.267C193.11 508.003 210.363 520.638 231.567 529.465C257.092 540.057 271.737 566.304 285.253 594.052C286.801 597.231 288.335 600.429 289.868 603.628C295.042 614.42 300.215 625.211 305.956 635.231C313.395 648.217 321.763 659.863 332.264 668.479C335.665 671.248 341.021 671.113 347.747 669.053C354.438 667.004 362.295 663.11 370.519 658.649C374.007 656.757 377.568 654.76 381.129 652.762C385.934 650.067 390.739 647.371 395.366 644.935C403.431 640.689 411.05 637.178 417.373 635.746L417.383 635.744C422.954 634.599 427.47 634.74 430.649 637.791L430.653 637.795C460.866 667.505 502.202 670.037 540.156 659.59C552.34 656.169 565.573 650.885 578.763 638.56C579.104 638.003 579.617 637.566 580.058 637.191L580.075 637.177C597.297 620.181 608.97 595.971 614.833 572.419C620.702 548.845 620.725 526.037 614.765 511.853C608.793 497.639 599.093 488.402 588.818 479.732C587.314 478.463 585.797 477.205 584.277 475.946C575.432 468.615 566.501 461.212 559.58 451.038L559.577 451.033C555.375 444.704 552.025 438.18 549.16 431.252L549.159 431.25C541.52 412.619 538.461 391.716 537.225 370.875C536.403 357.03 536.386 343.18 536.37 330.035C536.361 323.405 536.353 316.954 536.242 310.774C536.106 304.337 536.189 297.031 536.279 289.166C536.48 271.517 536.713 251.051 534.569 231.261C531.468 202.649 523.41 175.675 503.263 160.874L503.261 160.872C485.498 147.678 461.379 149.125 440.891 154.625Z" stroke="#CDDFE9" stroke-miterlimit="10"/>
<path d="M444.947 139.143L444.945 139.144C429.158 143.478 414.071 149.759 398.925 156.153C398.308 156.413 397.691 156.674 397.073 156.935C382.549 163.07 367.944 169.239 352.635 173.794C336.738 178.827 322.534 180.49 309.332 179.981L309.329 179.981C278.701 178.598 253.311 163.923 222.326 143.978L222.325 143.977C189.463 122.729 157.206 121.671 128.383 132.593C99.5362 143.525 74.0995 166.471 54.9669 193.274C40.5005 213.681 27.596 235.191 18.7323 258.565L18.732 258.566C16.8496 263.509 14.768 268.824 12.5698 274.438C2.59684 299.903 -9.77596 331.497 -16.834 362.293C-25.4561 399.914 -26.0874 436.106 -4.98821 458.476C-2.96785 460.6 -0.0478756 462.031 3.6067 462.913C7.26042 463.794 11.6135 464.119 16.4577 464.055C26.149 463.927 37.7141 462.248 49.4114 460.458C50.3119 460.321 51.2132 460.182 52.1144 460.044C62.9024 458.386 73.6829 456.73 83.0283 456.224C88.0932 455.95 92.756 456.012 96.7843 456.6C100.809 457.188 104.237 458.305 106.801 460.171L106.802 460.171C119.957 469.778 131.922 480.22 143.762 490.553C149.413 495.485 155.037 500.393 160.747 505.172C178.438 519.98 197.012 533.606 220.014 543.127C247.429 554.468 263.105 582.74 277.53 612.669C279.224 616.185 280.902 619.724 282.579 623.263C288.054 634.816 293.528 646.366 299.597 657.099C307.522 671.115 316.438 683.692 327.64 692.998C331.31 696.033 337.09 695.875 344.332 693.617C351.537 691.37 359.998 687.104 368.848 682.22C372.635 680.13 376.5 677.923 380.363 675.718C385.499 672.785 390.632 669.853 395.575 667.202C404.242 662.552 412.422 658.706 419.193 657.132C425.172 655.743 430.042 656.106 433.398 659.253L433.407 659.261C465.606 691.031 510.199 693.845 550.889 682.466L550.891 682.466C564.218 678.778 578.413 673.118 592.495 659.667L592.506 659.657L592.517 659.647C592.746 659.452 593.002 659.214 593.269 658.964C593.527 658.724 593.795 658.473 594.042 658.263C612.612 639.99 625.186 613.901 631.517 588.534C637.853 563.145 637.91 538.586 631.563 523.378L632.025 523.186L631.563 523.378C625.162 508.004 614.715 498.05 603.658 488.728C602.031 487.357 600.391 486 598.749 484.64C589.238 476.767 579.645 468.826 572.237 457.888L572.235 457.884C567.765 451.172 564.063 443.987 561.028 436.502L561.027 436.499C553.017 416.398 549.847 393.89 548.581 371.462C547.757 356.86 547.739 342.258 547.722 328.371C547.713 320.942 547.704 313.718 547.572 306.807L547.572 306.806C547.455 300.063 547.556 292.427 547.666 284.21C547.921 265.073 548.217 242.778 545.886 221.231C542.553 190.43 533.863 161.378 512.167 145.453C493.121 131.516 467.039 132.974 444.947 139.143Z" stroke="#CDDFE9" stroke-miterlimit="10"/>
<path d="M449 123.662L448.999 123.662C432.126 128.397 416.065 135.201 399.98 142.165C398.921 142.623 397.862 143.082 396.803 143.541C381.78 150.056 366.688 156.599 350.891 161.589L350.889 161.589C333.865 166.884 318.813 168.745 304.676 168.155L304.674 168.155C271.903 166.677 244.583 151.117 211.678 129.834L211.678 129.834C176.349 106.934 141.786 105.744 110.932 117.435C80.0539 129.135 52.8592 153.75 32.3559 182.505C16.9156 204.175 3.0212 227.4 -6.55003 252.423C-8.60777 257.826 -10.8926 263.651 -13.3089 269.811C-23.9709 296.991 -37.1953 330.703 -44.785 363.577C-49.439 383.735 -51.9657 403.546 -50.491 421.314C-49.0166 439.078 -43.5458 454.769 -32.2322 466.736L-32.2321 466.736C-30.066 469.029 -26.9301 470.567 -23.0058 471.508C-19.0825 472.449 -14.4064 472.785 -9.2028 472.701C1.20715 472.531 13.6353 470.68 26.202 468.707C27.1926 468.551 28.184 468.395 29.1753 468.239C40.7426 466.415 52.2956 464.593 62.3073 464.01C67.7441 463.693 72.7459 463.74 77.063 464.356C81.376 464.97 85.0435 466.158 87.7795 468.151L87.7802 468.152C101.777 478.386 114.532 489.512 127.161 500.527C133.302 505.883 139.412 511.212 145.621 516.401C164.619 532.277 184.584 546.878 209.291 557.042L209.292 557.042C238.507 569.078 255.121 599.322 270.409 631.406C272.214 635.192 273.999 639.004 275.785 642.817C281.58 655.188 287.377 667.563 293.812 679.07C302.229 694.119 311.715 707.638 323.663 717.66C327.535 720.867 333.686 720.645 341.408 718.173C349.093 715.713 358.134 711.09 367.599 705.803C371.65 703.541 375.785 701.152 379.92 698.765C385.415 695.591 390.908 692.419 396.199 689.543C405.479 684.501 414.234 680.317 421.477 678.559L421.482 678.558C427.721 677.108 433.178 677.324 436.628 680.77C471.18 714.81 518.846 717.798 562.271 705.489L562.275 705.487C576.446 701.604 591.585 695.576 606.725 681.14C607.019 680.846 607.287 680.596 607.549 680.352L607.553 680.348C607.818 680.101 608.077 679.859 608.359 679.576L608.361 679.574C628.196 659.969 641.722 632.021 648.568 604.86C655.417 577.682 655.553 551.399 648.728 535.117L649.19 534.924L648.728 535.117C641.849 518.667 630.632 508.04 618.789 498.064C617.13 496.667 615.458 495.282 613.784 493.895C603.524 485.396 593.182 476.828 585.259 464.947L585.257 464.944C580.438 457.576 576.468 450.009 573.263 441.965C564.648 420.372 561.251 396.248 559.92 372.24C559.042 356.406 559.062 340.591 559.081 325.58C559.091 317.842 559.1 310.318 558.987 303.115L558.987 303.114C558.885 295.974 559.016 287.895 559.156 279.198C559.487 258.643 559.874 234.641 557.394 211.454C553.864 178.455 544.542 147.326 521.156 130.31L521.155 130.309C500.56 115.249 472.602 116.994 449 123.662Z" stroke="#CDDFE9" stroke-miterlimit="10"/>
<path d="M570.416 298.976L570.416 298.974C570.316 291.47 570.456 282.978 570.606 273.834C570.966 251.904 571.387 226.22 568.724 201.404C564.95 166.235 554.996 133.028 530.059 114.889C508.182 99.0879 478.447 100.948 453.053 108.181C435.093 113.316 418.012 120.616 400.932 127.979L399.638 128.537C382.999 135.711 366.341 142.894 348.899 148.106C330.932 153.767 315.034 155.825 299.965 155.155L299.963 155.155C265.333 153.516 236.266 137.176 201.258 114.451C163.506 90.0375 126.634 88.8277 93.7461 101.343C60.8342 113.868 31.8814 140.153 10.0569 170.773L10.0565 170.773C-6.45689 193.879 -21.2411 218.645 -31.336 245.421L-31.3362 245.421C-33.6743 251.609 -36.296 258.312 -39.0753 265.418C-50.3344 294.205 -64.1783 329.601 -72.2217 364.129C-77.2352 385.651 -79.9864 406.803 -78.4605 425.778C-76.9348 444.75 -71.137 461.515 -59.0804 474.31L-59.0791 474.311C-56.7904 476.759 -53.4608 478.395 -49.287 479.391C-45.1143 480.386 -40.134 480.732 -34.5884 480.627C-23.4946 480.417 -10.2328 478.405 3.17953 476.263C4.22172 476.096 5.26482 475.929 6.30784 475.762C18.6701 473.78 31.0209 471.799 41.7195 471.151C47.522 470.799 52.8582 470.837 57.461 471.484C62.0597 472.131 65.9646 473.39 68.872 475.511L68.8727 475.512C83.7958 486.436 97.3791 498.326 110.831 510.099C117.362 515.816 123.862 521.505 130.469 527.044C150.703 544.005 171.988 559.596 198.4 570.401C229.557 583.1 247.132 615.387 263.281 649.68C265.193 653.741 267.085 657.83 268.978 661.92C275.091 675.131 281.208 688.349 288.012 700.638C296.92 716.728 306.982 731.179 319.702 741.875L319.702 741.875C323.797 745.323 330.318 745.064 338.51 742.383C346.662 739.715 356.264 734.716 366.326 729.003C370.565 726.596 374.892 724.06 379.22 721.521C385.139 718.051 391.061 714.578 396.772 711.431C406.664 705.981 416.011 701.455 423.771 699.538C430.514 697.674 436.141 698.004 439.953 701.648L439.958 701.653C476.863 737.967 527.519 740.857 573.769 727.89C588.89 723.637 604.977 717.24 621.177 701.813L621.188 701.803L621.198 701.794C621.659 701.402 622.222 700.839 622.806 700.254L622.808 700.253C643.9 679.317 658.327 649.49 665.641 620.513C672.958 591.52 673.127 563.487 665.825 546.13L665.824 546.128C658.516 528.517 646.597 517.2 633.995 506.586C632.205 505.079 630.401 503.585 628.594 502.089C617.693 493.066 606.695 483.962 598.216 471.287C593.025 463.7 588.885 455.574 585.513 446.979C576.336 424.033 572.758 398.319 571.374 372.712C570.476 356.104 570.501 339.508 570.525 323.734C570.538 315.198 570.55 306.902 570.416 298.976Z" stroke="#CDDFE9" stroke-miterlimit="10"/>
<path d="M611.139 478.519C593.76 452.545 586.655 420.937 583.78 388.745C581.752 366.032 581.827 342.983 581.898 321.394C581.927 312.394 581.955 303.647 581.83 295.285L581.83 295.284C581.731 287.343 581.888 278.34 582.056 268.634C582.461 245.359 582.935 218.044 580.126 191.652C576.145 154.25 565.583 118.923 539.048 99.7458C515.621 82.8212 484.01 84.9679 457.105 92.7002L456.967 92.2196L457.105 92.7002C438.108 98.1505 420.032 105.905 401.957 113.777C401.134 114.135 400.311 114.494 399.488 114.852C382.243 122.368 364.96 129.9 346.885 135.518L346.737 135.04L346.885 135.518C315.399 145.288 289.638 145.099 265.064 138.108C240.512 131.124 217.172 117.357 190.528 100.032C150.401 74.0187 111.22 72.7887 76.2627 86.1373C41.2814 99.4951 10.4997 127.466 -12.7377 159.899C-30.3238 184.44 -46.0978 210.92 -56.9991 239.515C-59.5183 246.188 -62.3567 253.438 -65.371 261.138C-77.2846 291.57 -91.9473 329.024 -100.516 365.586C-105.884 388.488 -108.852 411.007 -107.262 431.201C-105.672 451.391 -99.53 469.225 -86.7064 482.805L-86.7054 482.806C-84.2821 485.389 -80.7447 487.107 -76.3062 488.143C-71.8691 489.179 -66.5688 489.525 -60.6656 489.393C-48.8564 489.128 -34.7284 486.952 -20.4413 484.644C-19.3891 484.474 -18.3359 484.303 -17.2828 484.132C-4.05527 481.988 9.16645 479.845 20.6072 479.134C26.7848 478.751 32.4628 478.784 37.3564 479.466C42.2457 480.147 46.3908 481.48 49.4695 483.729L49.4702 483.729C65.2358 495.282 79.6102 507.855 93.8522 520.313C100.871 526.452 107.857 532.563 114.962 538.51C136.503 556.539 159.18 573.105 187.298 584.553C220.345 598 238.926 632.355 255.971 668.85C258.002 673.198 260.011 677.578 262.021 681.957C268.458 695.987 274.897 710.022 282.062 723.067C291.46 740.178 302.082 755.537 315.527 766.88L315.527 766.88C318.158 769.104 321.751 769.863 326.151 769.453C330.554 769.043 335.706 767.467 341.375 765.094C352.595 760.397 365.713 752.636 378.851 744.863L379.262 744.62C392.517 736.778 405.774 728.955 417.023 724.364C422.647 722.068 427.804 720.565 432.232 720.284C436.666 720.002 440.424 720.945 443.161 723.606L443.162 723.607C482.334 761.917 536.066 764.982 585.053 751.083L585.055 751.083C601.019 746.634 618.151 739.699 635.412 723.282L635.413 723.281C658.538 701.354 674.317 669.399 682.355 638.214C690.398 607.013 690.664 576.695 682.89 558.038C675.104 539.351 662.438 527.317 649.064 516.029C647.179 514.438 645.279 512.862 643.377 511.283C631.798 501.674 620.125 491.987 611.139 478.519ZM611.139 478.519L611.555 478.241M611.139 478.519C611.139 478.519 611.139 478.519 611.139 478.518L611.555 478.241M611.555 478.241C582.03 434.114 582.227 373.587 582.398 321.421C582.427 312.415 582.456 303.658 582.33 295.277L49.1746 484.133C64.9235 495.673 79.2689 508.221 93.5009 520.67C121.778 545.405 149.608 569.748 187.109 585.016C223.853 599.968 242.659 640.956 261.561 682.154C276.446 714.598 291.392 747.173 315.205 767.262C326.227 776.579 352.697 760.918 379.084 745.306C405.76 729.523 432.351 713.791 442.812 723.965C482.161 762.446 536.105 765.491 585.19 751.564C601.203 747.102 618.418 740.135 635.757 723.644C682.182 679.625 699.02 595.45 683.352 557.846C674.411 536.389 659.077 523.663 643.689 510.892C632.108 501.281 620.497 491.644 611.555 478.241Z" stroke="#CDDFE9" stroke-miterlimit="10"/>
</svg>
