<svg width="413" height="260" viewBox="0 0 413 260" fill="none" xmlns="http://www.w3.org/2000/svg">
<path d="M248.504 461.726L248.501 461.724C245.759 459.985 242.633 458.139 239.299 456.171C232.226 451.996 224.218 447.269 216.951 441.831C206.262 433.832 197.352 424.414 195.505 413.193C193.957 403.257 198.984 394.095 205.287 386.511C210.006 380.94 215.616 375.991 221.45 371.074C222.544 370.152 223.646 369.231 224.752 368.307C229.532 364.312 234.373 360.266 238.886 355.871C244.46 350.549 248.454 345.215 251.252 339.656L251.255 339.652C257.553 326.813 257.059 312.946 256.477 296.598L256.45 295.829V295.828C255.862 279.589 262.174 267.357 272.226 258.804C282.293 250.239 296.136 245.347 310.607 243.873C321.267 242.817 331.904 242.609 342.132 244.292L342.136 244.292C342.463 244.344 342.792 244.395 343.125 244.448C355.789 246.441 372.556 249.079 387.207 254.267C402.267 259.6 414.912 267.566 418.698 280.118C419.382 282.565 418.503 285.69 416.665 289.274C414.839 292.837 412.133 296.729 409.347 300.662C409.112 300.995 408.875 301.328 408.639 301.661C406.092 305.25 403.539 308.848 401.633 312.191C399.562 315.822 398.184 319.266 398.5 322.137L398.5 322.139C399.289 329.028 400.473 335.653 401.634 342.149C402.222 345.44 402.804 348.698 403.326 351.941C404.882 361.606 405.913 371.185 405.028 381.28L405.028 381.283C403.926 394.784 410.391 407.553 417.406 420.153C418.047 421.305 418.692 422.454 419.337 423.603C425.784 435.086 432.184 446.486 433.52 458.394L433.521 458.397C433.793 460.675 432.654 463.088 430.535 465.639C428.425 468.178 425.419 470.762 422.132 473.365C420.749 474.46 419.309 475.565 417.87 476.668C415.918 478.164 413.968 479.659 412.166 481.128C409.031 483.684 406.252 486.231 404.527 488.725C402.898 490.904 402.228 492.951 402.663 495.043L402.665 495.055L402.669 495.067C407.754 514.518 399.553 532.752 386.176 546.427C382.064 550.614 377.002 554.777 369.028 557.285C368.94 557.295 368.86 557.316 368.802 557.332C368.72 557.357 368.634 557.387 368.564 557.412L368.558 557.414C368.48 557.442 368.421 557.463 368.369 557.478C368.339 557.487 368.323 557.49 368.318 557.491H368.259L368.19 557.511C357.425 560.651 345.012 559.714 334.194 556.507C323.362 553.295 314.232 547.837 309.971 542.038C305.689 536.21 304.22 530.116 303.136 523.92C302.964 522.94 302.802 521.956 302.639 520.97C301.779 515.744 300.907 510.45 298.549 505.315C297.147 502.104 295.348 499.113 293.354 496.342L293.353 496.34C287.865 488.763 280.344 482.484 272.361 476.917C267.175 473.3 261.765 469.966 256.584 466.771C253.801 465.056 251.085 463.382 248.504 461.726Z" stroke="#F3CDDB" stroke-miterlimit="10"/>
<path d="M311.156 562.771L311.158 562.773C316.11 569.523 326.772 575.827 339.412 579.542C352.036 583.253 366.528 584.348 379.076 580.784L379.143 580.765H379.212C379.315 580.765 379.39 580.741 379.539 580.688L379.551 580.684C379.684 580.636 379.874 580.569 380.118 580.556C389.47 577.625 395.323 572.829 400.227 568.005C415.781 552.213 425.36 531.443 419.487 509.036C418.829 506.682 419.949 504.185 421.748 501.832M311.156 562.771L422.146 502.135M311.156 562.771C306.183 556.097 304.468 549.052 303.185 541.85C302.985 540.725 302.795 539.595 302.604 538.461C301.579 532.362 300.538 526.164 297.757 520.125M311.156 562.771L297.301 520.331M421.748 501.832C421.749 501.832 421.749 501.831 421.749 501.831L422.146 502.135M421.748 501.832C421.748 501.833 421.748 501.833 421.747 501.834L422.146 502.135M421.748 501.832C423.87 499.024 427.231 496.146 431.018 493.255C433.204 491.585 435.561 489.891 437.92 488.194C439.64 486.957 441.361 485.719 443.019 484.49C446.973 481.556 450.598 478.646 453.159 475.797C455.732 472.933 457.138 470.233 456.867 467.705M422.146 502.135C425.423 497.796 431.777 493.227 438.199 488.609C448.061 481.518 458.083 474.311 457.364 467.648M456.867 467.705C456.867 467.707 456.868 467.708 456.868 467.709L457.364 467.648M456.867 467.705C456.867 467.704 456.867 467.703 456.867 467.701L457.364 467.648M456.867 467.705C455.188 454.198 447.5 441.232 439.755 428.168C438.9 426.727 438.045 425.284 437.197 423.84C428.699 409.363 420.938 394.683 422.44 379.16L422.44 379.159C423.621 367.269 422.392 356 420.54 344.696C419.946 341.07 419.286 337.435 418.622 333.774C417.22 326.045 415.796 318.2 414.922 310.077C414.556 306.777 416.225 302.787 418.736 298.557C421.02 294.709 424.066 290.563 427.11 286.419C427.431 285.981 427.753 285.542 428.074 285.105C431.441 280.511 434.708 275.958 436.901 271.795C439.108 267.606 440.154 263.945 439.277 261.083L439.276 261.079C434.9 246.416 419.838 237.23 402.001 231.127C385.393 225.445 366.545 222.491 352.112 220.229C351.071 220.066 350.053 219.906 349.061 219.75C337.049 217.854 324.432 218.063 312.187 219.119C295.44 220.805 279.273 226.386 267.475 236.3C255.693 246.201 248.245 260.443 248.931 279.537C249.722 298.762 250.331 314.766 242.943 329.5C239.749 335.904 235.162 342.086 228.792 348.047C228.791 348.047 228.791 348.048 228.79 348.048L228.449 347.683L457.364 467.648M291.569 509.666C285.093 500.928 276.337 493.645 267.043 487.204C260.445 482.633 253.553 478.47 247.001 474.514C244.329 472.9 241.714 471.321 239.198 469.762C236.11 467.827 232.575 465.764 228.794 463.556C220.521 458.728 211.066 453.209 202.507 446.83C190.036 437.534 179.647 426.531 177.699 413.411C175.952 401.579 182.352 390.937 189.849 382.288L291.168 509.963M291.569 509.666L291.168 509.963M291.569 509.666C291.569 509.665 291.569 509.664 291.568 509.664L291.168 509.963M291.569 509.666C293.961 512.863 296.157 516.49 297.757 520.125M291.168 509.963C293.542 513.137 295.719 516.734 297.301 520.331M297.757 520.125C297.757 520.124 297.756 520.123 297.756 520.121L297.301 520.331M297.757 520.125C297.758 520.126 297.758 520.128 297.759 520.129L297.301 520.331" stroke="#F3CDDB" stroke-miterlimit="10"/>
<path d="M160.091 413.412L160.091 413.417C162.14 428.542 174.009 441.077 188.285 451.615C197.926 458.732 208.578 464.881 217.939 470.285C222.442 472.884 226.647 475.311 230.296 477.591M160.091 413.412L230.032 478.015M160.091 413.412C158.146 400.103 165.727 387.771 174.411 378.062C180.811 371.008 188.3 364.841 195.991 358.706C196.921 357.964 197.854 357.222 198.789 356.48C205.572 351.089 212.426 345.642 218.706 339.58C225.86 332.779 231.042 325.964 234.633 318.71C243.011 302.283 242.401 284.374 241.611 262.611L241.611 262.607C240.629 240.658 249.165 224.356 262.676 213.054C276.205 201.737 294.748 195.415 313.773 193.518L313.775 193.517C327.993 192.039 342.388 191.83 356.179 194.148L356.18 194.148C358.192 194.479 360.3 194.818 362.487 195.169C378.501 197.74 398.779 200.996 416.819 207.009C437.355 213.853 454.786 224.205 459.853 240.981L459.854 240.983C460.827 244.154 459.556 248.285 456.941 253.042C454.343 257.77 450.501 262.971 446.552 268.226C446.24 268.642 445.927 269.057 445.615 269.473C441.98 274.303 438.337 279.146 435.615 283.63C434.136 286.066 432.919 288.412 432.122 290.608C431.326 292.8 430.937 294.871 431.146 296.747C432.158 306.128 433.839 315.155 435.494 324.042C436.268 328.2 437.037 332.328 437.729 336.447C439.902 349.389 441.328 362.296 439.852 375.981L439.851 375.984C438.051 393.523 447.105 410.059 457.061 426.386C458.079 428.056 459.107 429.723 460.134 431.39C464.143 437.895 468.145 444.387 471.539 450.945C475.802 459.178 479.088 467.476 480.215 475.963L160.091 413.412ZM230.296 477.591L230.032 478.015M230.296 477.591C230.296 477.591 230.296 477.59 230.295 477.59L230.032 478.015M230.296 477.591C233.383 479.505 236.605 481.443 239.901 483.426C247.145 487.783 254.746 492.355 262.045 497.359C272.673 504.644 282.714 512.878 290.18 522.777M230.032 478.015C233.13 479.937 236.359 481.879 239.66 483.864C257.434 494.556 277.268 506.486 289.783 523.081M290.18 522.777C290.18 522.777 290.179 522.776 290.179 522.776L289.783 523.081M290.18 522.777C290.181 522.778 290.181 522.779 290.182 522.78L289.783 523.081M290.18 522.777L289.783 523.081M390.305 603.648C390.288 603.657 390.271 603.665 390.254 603.674L390.49 604.115L390.353 603.635C390.337 603.639 390.321 603.644 390.305 603.648ZM414.471 588.952C414.471 588.952 414.471 588.953 414.47 588.953L414.826 589.305L414.473 588.95C414.473 588.951 414.472 588.951 414.471 588.952ZM439.17 514.09C439.167 514.093 439.165 514.097 439.162 514.1L439.557 514.406L439.178 514.081C439.175 514.084 439.172 514.087 439.17 514.09Z" stroke="#F3CDDB" stroke-miterlimit="10"/>
<path d="M159.173 373.835L159.17 373.837C149.109 384.597 140.535 398.414 142.484 413.631M159.173 373.835L141.988 413.695M159.173 373.835C166.365 366.038 174.696 359.236 183.253 352.492C184.458 351.543 185.668 350.594 186.879 349.644C194.26 343.856 201.708 338.014 208.608 331.547C216.759 324.106 222.535 316.442 226.521 308.555L226.522 308.553C235.69 290.225 235.279 270.206 234.291 246.105L234.291 246.104C233.21 221.3 242.882 202.988 258.125 190.337C273.385 177.671 294.253 170.66 315.554 168.551L315.557 168.551C331.554 166.861 347.731 166.652 363.304 169.182C365.82 169.593 368.474 170.013 371.238 170.45C389.153 173.285 411.742 176.86 431.884 183.445C455.167 191.057 474.968 202.626 480.628 221.514C481.161 223.3 481.061 225.362 480.438 227.664C479.815 229.965 478.679 232.476 477.178 235.14C474.175 240.469 469.758 246.332 465.228 252.249C464.884 252.698 464.539 253.147 464.194 253.597C460.011 259.054 455.82 264.521 452.692 269.576C450.998 272.313 449.605 274.945 448.692 277.405C447.78 279.86 447.334 282.175 447.568 284.265C448.698 294.567 450.565 304.527 452.409 314.364C453.314 319.19 454.213 323.985 455.017 328.777C457.462 343.358 459.036 357.956 457.264 373.439L457.263 373.439C455.065 392.891 465.362 411.282 476.776 429.459C478.016 431.434 479.27 433.407 480.523 435.379C485.051 442.505 489.573 449.62 493.434 456.803C498.361 465.969 502.19 475.207 503.563 484.646L503.563 484.646C504.022 487.784 502.184 491.108 498.763 494.615C495.361 498.103 490.508 501.655 485.204 505.238C483.009 506.721 480.73 508.213 478.451 509.705C475.252 511.8 472.052 513.896 469.076 515.97C463.976 519.526 459.449 523.076 456.582 526.572L456.579 526.577M159.173 373.835L456.579 526.577M142.484 413.631C142.484 413.631 142.484 413.631 142.484 413.632L141.988 413.695M142.484 413.631C142.484 413.631 142.483 413.63 142.483 413.63L141.988 413.695M142.484 413.631C144.731 430.658 158.083 444.779 174.139 456.613C185.201 464.767 197.461 471.777 208.143 477.885C212.965 480.643 217.466 483.217 221.391 485.629M141.988 413.695C145.832 442.83 181.729 463.357 207.929 478.34C212.743 481.092 217.229 483.658 221.129 486.055M221.391 485.629C221.39 485.629 221.39 485.628 221.389 485.628L221.129 486.055M221.391 485.629L221.129 486.055M221.391 485.629L221.129 486.055M456.579 526.577C454.199 529.546 452.657 532.477 453.519 535.484L456.579 526.577ZM297.161 549.104C297.161 549.103 297.16 549.103 297.16 549.103L296.708 549.317L297.161 549.105C297.161 549.104 297.161 549.104 297.161 549.104ZM314.322 603.604C314.321 603.603 314.321 603.603 314.321 603.603L313.921 603.904L314.323 603.606C314.323 603.605 314.322 603.604 314.322 603.604ZM401.585 626.497C401.567 626.506 401.55 626.515 401.532 626.525L401.768 626.965L401.634 626.484C401.617 626.488 401.601 626.493 401.585 626.497ZM428.719 610.108L429.072 610.462L428.724 610.103C428.723 610.104 428.722 610.105 428.721 610.106C428.72 610.107 428.72 610.107 428.719 610.108Z" stroke="#F3CDDB" stroke-miterlimit="10"/>
<path d="M143.735 369.608L143.735 369.609C132.485 381.428 122.728 396.938 124.874 413.632L124.875 413.634C127.222 432.669 142.056 448.376 159.892 461.479C172.187 470.511 185.82 478.248 197.659 484.967C202.996 487.995 207.968 490.817 212.288 493.457L212.288 493.457C216.344 495.94 220.601 498.456 224.967 501.037C233.778 506.244 243.03 511.712 251.95 517.694C265.3 526.646 277.963 536.784 287.409 549.011L287.41 549.013C290.993 553.695 293.976 558.588 296.56 563.69L296.566 563.7C300.642 572.237 302.115 581.051 303.574 589.777C303.828 591.296 304.081 592.811 304.348 594.322C306.15 604.54 308.558 614.598 315.706 624.127C322.834 633.629 338.047 642.473 356.029 647.67C373.98 652.857 394.587 654.378 412.467 649.348C412.716 649.227 412.998 649.167 413.21 649.121L413.238 649.116C413.503 649.059 413.675 649.018 413.799 648.952L413.843 648.928L413.892 648.914C427.239 644.926 435.876 638.003 442.768 631.264C464.655 609.545 478.583 580.522 470.335 549.021C469.479 545.813 471.001 542.469 473.803 539.258C477.066 535.447 482.173 531.581 487.919 527.708C491.239 525.47 494.802 523.211 498.365 520.953C500.962 519.307 503.558 517.661 506.059 516.024C512.018 512.125 517.47 508.254 521.295 504.448C525.141 500.622 527.218 496.983 526.712 493.533C525.141 483.091 520.807 472.889 515.24 462.778C510.885 454.867 505.791 447.036 500.691 439.198C499.269 437.012 497.847 434.826 496.44 432.637C483.567 412.61 471.98 392.365 474.476 370.899L474.477 370.898C476.546 353.513 474.774 337.276 472.007 321.082C471.106 315.809 470.098 310.534 469.084 305.224C466.987 294.252 464.862 283.131 463.594 271.571M143.735 369.608L464.091 271.515M143.735 369.608C151.819 361.069 161.091 353.631 170.514 346.279C171.552 345.469 172.592 344.66 173.633 343.85C182.026 337.321 190.447 330.77 198.123 323.506M143.735 369.608L197.782 323.14M463.594 271.571C463.594 271.57 463.594 271.57 463.594 271.57L464.091 271.515M463.594 271.571C463.594 271.571 463.594 271.571 463.594 271.571L464.091 271.515M463.594 271.571C463.335 269.267 463.837 266.71 464.865 263.991C465.893 261.268 467.461 258.35 469.368 255.312C472.879 249.72 477.576 243.669 482.27 237.622C482.674 237.102 483.078 236.581 483.481 236.061C488.58 229.483 493.553 222.959 496.933 217.028C498.622 214.064 499.902 211.267 500.603 208.702C501.303 206.137 501.416 203.836 500.809 201.84L500.808 201.837C494.555 180.837 472.385 168.103 446.379 159.776C424.377 152.731 399.787 148.888 380.139 145.817C376.594 145.263 373.211 144.734 370.032 144.216M464.091 271.515C463.141 263.082 472.869 250.549 482.668 237.924C493.273 224.262 503.961 210.492 501.288 201.695C489.592 162.416 423.042 152.016 380.207 145.321C376.665 144.768 373.285 144.24 370.111 143.722M370.032 144.216C370.032 144.216 370.033 144.216 370.033 144.216L370.111 143.722M370.032 144.216C370.032 144.216 370.031 144.216 370.031 144.216L370.111 143.722M370.032 144.216C352.676 141.474 334.717 141.684 316.937 143.374M370.111 143.722C352.7 140.972 334.696 141.183 316.889 142.876M316.889 142.876L316.938 143.374C316.937 143.374 316.937 143.374 316.937 143.374M316.889 142.876C269.404 147.531 223.701 173.766 226.075 229.623M316.889 142.876L316.936 143.374C316.936 143.374 316.937 143.374 316.937 143.374M316.937 143.374C293.261 145.695 270.069 153.393 253.104 167.434C236.156 181.46 225.394 201.834 226.574 229.601M226.075 229.623L226.574 229.601M226.075 229.623C227.262 256.282 227.46 278.074 217.369 297.962M226.075 229.623L226.574 229.602C226.574 229.601 226.574 229.601 226.574 229.601M226.574 229.601C227.761 256.245 227.973 278.166 217.816 298.187M217.369 297.962L217.816 298.187M217.369 297.962C213.016 306.637 206.685 314.889 197.782 323.14M217.369 297.962L217.815 298.189C217.815 298.188 217.816 298.187 217.816 298.187M217.816 298.187C213.432 306.923 207.062 315.221 198.123 323.506M197.782 323.14L198.125 323.503C198.125 323.504 198.124 323.505 198.123 323.506M197.782 323.14L198.122 323.507C198.122 323.507 198.122 323.506 198.123 323.506" stroke="#F3CDDB" stroke-miterlimit="10"/>
<path d="M128.299 365.38L128.297 365.383C115.668 378.255 104.919 395.248 107.069 413.85C109.516 434.786 125.881 452.078 145.548 466.504C158.956 476.339 173.809 484.782 186.718 492.121C192.747 495.548 198.352 498.734 203.188 501.709C207.575 504.365 212.185 507.059 216.917 509.824C226.666 515.521 236.933 521.521 246.83 528.113C261.539 537.911 275.49 549.054 285.827 562.552C289.801 567.652 293.186 572.973 295.777 578.727C300.285 588.098 301.925 597.785 303.551 607.389C303.828 609.031 304.106 610.67 304.397 612.305C306.398 623.529 309.053 634.592 316.894 645.073C324.714 655.526 341.459 665.217 361.248 670.916C381.014 676.609 403.712 678.288 423.381 672.824C423.701 672.711 423.969 672.654 424.21 672.602L424.219 672.6C424.466 672.548 424.684 672.5 424.947 672.407L424.959 672.403L424.971 672.399C439.704 667.987 449.133 660.429 456.617 653.057C480.485 629.432 495.994 597.658 486.954 562.984L486.951 562.971C486.103 559.342 487.824 555.791 491.02 552.16C494.63 548.032 500.306 543.835 506.704 539.626C510.391 537.2 514.349 534.751 518.307 532.301C521.21 530.504 524.114 528.706 526.912 526.918C533.551 522.674 539.628 518.459 543.882 514.316C548.16 510.15 550.463 506.184 549.861 502.425L549.861 502.423C548.093 490.976 543.241 479.81 537.019 468.752C532.171 460.138 526.508 451.614 520.841 443.086C519.232 440.663 517.622 438.241 516.03 435.815C501.675 413.937 488.796 391.837 491.69 368.357C494.056 349.175 492.086 331.247 489.023 313.386C488.051 307.723 486.969 302.061 485.88 296.368C483.539 284.128 481.17 271.74 479.818 258.875M128.299 365.38L480.315 258.82M128.299 365.38C137.273 356.1 147.485 348.08 157.848 340.119C158.732 339.44 159.617 338.762 160.502 338.083C169.989 330.808 179.525 323.497 188.232 315.253C197.961 306.123 204.923 296.981 209.702 287.613M128.299 365.38L209.702 287.613M479.818 258.875C479.818 258.874 479.818 258.873 479.818 258.873L480.315 258.82M479.818 258.875C479.819 258.875 479.819 258.876 479.819 258.877L480.315 258.82M479.818 258.875C479.534 256.359 480.093 253.56 481.236 250.577C482.381 247.591 484.124 244.386 486.246 241.048C490.163 234.886 495.407 228.212 500.65 221.539C501.086 220.983 501.522 220.428 501.958 219.872C507.638 212.634 513.186 205.448 516.971 198.915C518.863 195.65 520.302 192.567 521.099 189.738C521.896 186.909 522.042 184.367 521.385 182.161M480.315 258.82C479.269 249.562 490.117 235.754 501.046 221.843C512.846 206.824 524.74 191.684 521.865 182.018M521.385 182.161C521.385 182.161 521.386 182.161 521.386 182.162L521.865 182.018M521.385 182.161C514.44 159.046 489.897 145.095 461.195 136C437.14 128.378 410.321 124.215 388.855 120.882C384.739 120.243 380.819 119.635 377.154 119.038L377.153 119.038C357.823 115.874 338.085 116.294 318.719 118.196L318.718 118.196C292.767 120.728 267.2 129.168 248.503 144.584C229.824 159.985 217.976 182.368 219.452 212.884L219.452 212.884C220.836 242.068 221.049 265.897 209.702 287.613M521.385 182.161C521.385 182.161 521.385 182.161 521.385 182.16L521.865 182.018M521.865 182.018L209.702 287.613" stroke="#F3CDDB" stroke-miterlimit="10"/>
<path d="M112.862 361.153L112.863 361.152C122.727 351.13 133.879 342.475 145.207 333.906C146.366 333.029 147.527 332.153 148.688 331.277C158.87 323.594 169.1 315.876 178.532 307.217L178.534 307.215C189.055 297.45 196.613 287.672 201.788 277.455C213.925 253.625 213.713 228.108 212.328 196.383L212.328 196.381C210.753 162.903 223.74 138.457 244.149 121.681C264.577 104.889 292.468 95.7622 320.696 93.018L320.697 93.0179C341.838 90.905 363.359 90.6955 384.474 94.0718C388.617 94.7426 393.061 95.4262 397.737 96.1454C421.115 99.7414 450.277 104.227 476.455 112.436C507.904 122.298 534.818 137.466 542.357 162.694C543.063 165.111 542.887 167.894 541.998 170.987C541.109 174.079 539.517 177.449 537.43 181.015C533.256 188.15 527.151 195.997 520.903 203.897C520.402 204.529 519.901 205.162 519.4 205.795C513.652 213.051 507.908 220.303 503.602 226.995C501.261 230.634 499.333 234.124 498.06 237.374C496.787 240.62 496.153 243.661 496.437 246.389L496.437 246.392C497.961 260.141 500.531 273.385 503.069 286.472C504.324 292.938 505.571 299.365 506.68 305.796C510.041 325.269 512.158 344.836 509.497 365.816L509.496 365.816C506.304 391.204 520.423 415.157 536.212 438.885C538.007 441.582 539.823 444.276 541.639 446.97C547.83 456.153 554.019 465.333 559.334 474.607C566.205 486.597 571.589 498.702 573.603 511.1C574.253 515.171 571.697 519.453 566.976 523.938C562.28 528.399 555.579 532.932 548.26 537.493C545.16 539.425 541.943 541.366 538.726 543.306C534.376 545.93 530.028 548.554 525.971 551.153C518.91 555.679 512.642 560.191 508.636 564.634C505.044 568.476 503.109 572.46 504.167 576.316C513.997 614.163 497.103 648.686 471.061 674.213C462.795 682.211 452.591 690.392 436.512 695.229C435.859 695.246 435.224 695.472 434.678 695.667L434.657 695.674C413.208 701.667 388.433 699.83 366.861 693.634C345.266 687.432 326.987 676.895 318.475 665.595L318.475 665.594C309.843 654.161 306.941 642.146 304.768 629.946C304.446 628.142 304.141 626.334 303.835 624.523C302.075 614.1 300.298 603.572 295.379 593.322C292.391 586.933 288.611 581.191 284.444 575.674L284.439 575.668C273.015 561.007 257.729 548.912 241.659 538.268C231.06 531.247 220.093 524.841 209.66 518.747C204.285 515.608 199.052 512.551 194.084 509.536C188.971 506.426 183.071 503.091 176.725 499.505C162.498 491.466 146.034 482.163 131.203 471.291C109.755 455.568 91.9065 436.689 89.2612 413.849L89.2611 413.849C86.9143 393.772 99.0415 375.087 112.862 361.153ZM112.507 360.801C98.6571 374.765 86.3903 393.595 88.7645 413.907L112.507 360.801Z" stroke="#F3CDDB" stroke-miterlimit="10"/>
<path d="M97.4281 356.923L97.4283 356.923C108.184 346.16 120.227 336.869 132.421 327.638C133.346 326.938 134.272 326.238 135.198 325.538C146.474 317.014 157.804 308.449 168.246 298.752L168.248 298.75C179.561 288.138 187.512 277.727 193.279 266.668L193.28 266.666C206.406 241.144 206.393 213.723 204.81 179.456L204.81 179.453C202.939 143.12 217.013 116.665 239.153 98.5406C261.312 80.3999 291.577 70.5847 322.081 67.6289L322.083 67.6287C345.206 65.3039 368.505 64.8837 391.397 68.6823L391.479 68.1891L391.398 68.6823C396.398 69.5112 401.812 70.3524 407.532 71.2412C432.508 75.1223 463.318 79.91 491.073 88.5284C525.219 99.1311 554.506 115.464 562.736 142.808C563.515 145.408 563.328 148.412 562.361 151.754C561.395 155.095 559.659 158.741 557.384 162.603C552.832 170.33 546.171 178.845 539.354 187.419C538.816 188.095 538.278 188.771 537.739 189.448C531.459 197.336 525.181 205.221 520.477 212.491C517.922 216.439 515.82 220.223 514.431 223.741C513.043 227.257 512.353 230.542 512.661 233.483L512.661 233.484C514.27 248.535 517.083 263.044 519.866 277.397C521.194 284.249 522.516 291.066 523.696 297.889C527.353 319.028 529.668 340.286 526.71 363.063C523.121 390.465 538.529 416.271 555.802 441.85C557.78 444.781 559.784 447.708 561.787 450.635C568.546 460.512 575.305 470.388 581.112 480.369C588.639 493.304 594.541 506.375 596.752 519.777C597.45 524.106 594.654 528.677 589.507 533.473C584.388 538.242 577.087 543.099 569.112 547.991C565.729 550.066 562.219 552.151 558.709 554.236C553.972 557.05 549.235 559.863 544.811 562.653C537.102 567.514 530.251 572.357 525.85 577.117L525.843 577.124C522.065 581.377 519.93 585.358 520.983 589.636L520.984 589.642C531.607 630.662 513.132 667.726 485.108 695.372C476.053 704.213 464.861 713.031 447.592 718.291C446.939 718.308 446.304 718.534 445.759 718.729L445.738 718.736C422.408 725.153 395.605 723.156 372.277 716.458C348.927 709.754 329.163 698.37 319.859 686.117C310.536 673.838 307.386 660.818 305.015 647.586C304.668 645.648 304.338 643.706 304.007 641.76C302.08 630.434 300.135 618.998 294.784 607.918L294.782 607.913C291.402 601.109 287.427 594.946 282.859 589L282.858 588.999C270.543 573.067 253.97 559.967 236.539 548.476C224.959 540.842 212.974 533.902 201.598 527.315C195.86 523.993 190.278 520.761 184.981 517.575C179.475 514.238 173.106 510.657 166.249 506.802C150.865 498.152 133.024 488.121 116.957 476.368C93.729 459.377 74.3983 438.912 71.6531 414.064L71.6528 414.061C69.108 392.081 82.4204 371.916 97.4281 356.923Z" stroke="#F3CDDB" stroke-miterlimit="10"/>
<path d="M81.9922 352.695L81.9938 352.693C93.6403 341.189 106.624 331.263 119.734 321.344C120.268 320.939 120.802 320.535 121.337 320.131C133.912 310.62 146.558 301.056 158.157 290.076C170.463 278.825 179.006 267.356 185.166 255.668L185.167 255.665C199.284 228.45 199.27 199.123 197.49 162.317L197.49 162.316C195.519 123.232 210.731 94.7677 234.602 75.2673C258.492 55.7511 291.082 45.1954 323.861 42.0279C348.767 39.7028 373.848 39.2825 398.522 43.2931L398.522 43.2932C403.745 44.1347 409.389 44.9897 415.349 45.8925C442.389 49.9885 475.937 55.0702 506.136 64.3559C543.027 75.6993 574.686 93.2486 583.51 122.706C584.339 125.518 584.118 128.762 583.055 132.368C581.992 135.973 580.096 139.905 577.618 144.068C572.662 152.397 565.426 161.574 558.027 170.809C557.457 171.52 556.887 172.231 556.316 172.942C549.487 181.456 542.663 189.964 537.552 197.805C534.782 202.054 532.504 206.123 530.999 209.906C529.496 213.685 528.75 217.212 529.083 220.366L529.083 220.367C530.826 236.563 533.886 252.146 536.914 267.566C538.36 274.926 539.798 282.25 541.083 289.585C545.061 312.31 547.574 335.208 544.319 359.889C540.433 389.302 557.079 417.013 575.786 444.47C577.984 447.696 580.21 450.918 582.437 454.14C589.704 464.658 596.97 475.174 603.23 485.796C611.406 499.668 617.839 513.677 620.298 528.031C621.091 532.728 618.065 537.654 612.488 542.797C606.939 547.913 599.014 553.107 590.36 558.33C586.657 560.564 582.813 562.808 578.971 565.051C573.863 568.032 568.758 571.012 563.991 573.967C555.63 579.148 548.209 584.308 543.461 589.386C539.268 593.869 537.148 598.268 538.195 602.748L538.198 602.76C549.611 646.53 529.752 686.555 499.553 716.105L499.552 716.106C489.694 725.804 477.694 735.267 459.004 740.737L458.99 740.741L458.977 740.746C458.693 740.847 458.359 740.95 458.009 741.056C457.672 741.159 457.321 741.267 457.015 741.375C431.905 748.32 403.025 746.165 377.891 738.965C352.735 731.758 331.438 719.527 321.441 706.427L321.044 706.73L321.441 706.426C311.327 693.196 307.931 679.172 305.386 664.935C305.012 662.841 304.656 660.742 304.3 658.639C302.237 646.467 300.157 634.189 294.388 622.304L294.386 622.3C290.808 615.073 286.437 608.274 281.472 601.903L281.47 601.901C268.067 584.913 250.159 570.915 231.369 558.604C219.135 550.589 206.499 543.273 194.481 536.315C188.052 532.593 181.8 528.973 175.88 525.403L175.88 525.403C170.099 521.929 163.435 518.2 156.264 514.185C139.564 504.838 120.107 493.947 102.613 481.155C77.6041 462.868 56.7896 440.816 53.8464 414.064C51.2997 390.602 65.6036 368.742 81.9922 352.695Z" stroke="#F3CDDB" stroke-miterlimit="10"/>
<path d="M66.5585 348.465L66.5591 348.464C79.0955 336.219 93.0186 325.711 107.092 315.264C108.019 314.576 108.946 313.888 109.873 313.201C123.026 303.447 136.239 293.649 148.458 282.463L148.46 282.461C161.557 270.366 170.695 258.261 177.252 245.723L177.253 245.721C192.359 216.602 192.543 185.162 190.565 146.024L190.565 146.024C188.397 103.978 204.648 73.4507 230.199 52.5757C255.771 31.6846 290.686 20.4409 325.84 17.0618C352.327 14.5253 379.387 14.1047 405.844 18.3273C411.552 19.2468 417.738 20.1804 424.281 21.1678C453.151 25.5243 488.959 30.9278 521.223 40.7918C541.008 46.8405 559.428 54.5578 574.078 64.7188C588.725 74.8775 599.578 87.4611 604.285 103.242L604.285 103.242C605.188 106.265 604.952 109.75 603.805 113.619C602.658 117.487 600.611 121.705 597.936 126.169C592.584 135.099 584.767 144.937 576.775 154.833C576.145 155.613 575.514 156.394 574.883 157.174C567.52 166.28 560.165 175.374 554.655 183.753C551.662 188.303 549.202 192.658 547.576 196.705C545.952 200.747 545.147 204.517 545.505 207.883L545.505 207.884C547.37 225.123 550.627 241.732 553.852 258.177C555.42 266.172 556.981 274.129 558.37 282.101C562.62 306.491 565.282 331.082 561.73 357.561L561.73 357.561C557.546 388.88 575.432 418.391 595.572 447.672C597.95 451.128 600.358 454.581 602.767 458.034C610.583 469.238 618.402 480.445 625.149 491.772C633.974 506.586 640.939 521.56 643.644 536.919C644.486 541.875 641.218 547.091 635.216 552.543C629.243 557.968 620.718 563.487 611.408 569.04C607.423 571.417 603.287 573.804 599.152 576.191C593.656 579.363 588.162 582.534 583.027 585.678C574.02 591.193 566.018 596.684 560.875 602.077L560.871 602.081C556.496 606.76 553.955 611.594 555.214 616.304C567.417 663.247 546.173 706.021 513.799 737.474L513.796 737.477C503.347 747.807 490.558 757.904 470.486 763.798C470.085 763.905 469.734 764.012 469.391 764.117L469.386 764.119C469.039 764.225 468.701 764.328 468.315 764.431L468.312 764.432C441.416 771.807 410.449 769.546 383.504 761.894C356.542 754.237 333.713 741.213 323.024 727.162L322.627 727.465L323.024 727.162C312.218 712.979 308.623 697.951 305.906 682.708C305.525 680.572 305.161 678.432 304.797 676.289C302.567 663.154 300.318 649.913 293.991 637.111L293.989 637.107C290.017 629.25 285.449 622.029 280.085 615.231C265.692 596.974 246.499 581.97 226.373 568.813C213.1 560.136 199.393 552.246 186.384 544.757C179.678 540.896 173.157 537.142 166.976 533.442L166.975 533.442C160.842 529.784 153.78 525.857 146.179 521.63C128.212 511.64 107.232 499.974 88.3918 486.233C61.578 466.676 39.2805 443.038 36.2377 414.277L36.2375 414.276C33.493 388.911 48.9823 365.571 66.5585 348.465Z" stroke="#F3CDDB" stroke-miterlimit="10"/>
<path d="M157.677 541.271L157.675 541.27C151.227 537.432 143.803 533.307 135.808 528.864C116.636 518.211 94.1825 505.734 74.0228 491.02C45.453 470.167 21.6716 444.943 18.4308 414.277C15.6858 387.43 32.1641 362.609 51.1247 344.234C64.5521 331.248 79.4152 320.105 94.3313 308.995L95.4614 308.153C109.994 297.331 124.543 286.496 137.778 273.996C151.664 261.267 161.396 248.528 168.35 235.143L168.35 235.141C184.246 204.331 184.629 170.988 182.453 129.309C180.186 84.4068 197.574 51.87 224.857 29.6462C252.16 7.4061 289.399 -4.52536 326.829 -8.1161L326.83 -8.11616C355.097 -10.8642 383.937 -11.2847 412.173 -6.63941L412.173 -6.63935C418.701 -5.5702 425.817 -4.4891 433.361 -3.34306C463.92 1.29971 501.496 7.00833 535.42 17.3068C556.565 23.7259 576.259 31.9194 591.929 42.7285C607.596 53.5354 619.216 66.9389 624.269 83.7777L624.269 83.7796C625.245 86.9855 624.997 90.6873 623.772 94.7996C622.548 98.9109 620.357 103.397 617.493 108.147C611.764 117.649 603.391 128.128 594.83 138.673C594.164 139.492 593.498 140.312 592.832 141.132C584.934 150.847 577.044 160.553 571.133 169.493C567.927 174.343 565.292 178.983 563.551 183.293C561.811 187.599 560.95 191.61 561.333 195.189L561.333 195.189C563.332 213.575 566.837 231.284 570.308 248.82C571.993 257.334 573.67 265.808 575.163 274.299C579.735 300.303 582.594 326.532 578.746 354.808C574.165 388.14 593.339 419.504 614.963 450.636C617.524 454.322 620.119 458.006 622.715 461.689C631.099 473.589 639.488 485.495 646.729 497.533C656.209 513.292 663.692 529.232 666.595 545.595L666.595 545.596C667.534 550.865 664.049 556.384 657.631 562.138C651.245 567.863 642.115 573.68 632.136 579.537C627.932 582.005 623.572 584.484 619.21 586.963C613.245 590.353 607.276 593.746 601.696 597.118C592.029 602.959 583.436 608.792 577.896 614.554C572.91 619.461 570.383 624.499 571.633 629.623L571.634 629.63C584.631 679.747 561.805 725.061 527.451 758.632C516.207 769.6 502.624 780.333 481.163 786.65L481.15 786.654L481.136 786.659C480.566 786.862 479.797 787.068 478.999 787.281L478.997 787.282C450.32 795.08 417.275 792.661 388.524 784.506C359.757 776.347 335.394 762.476 324.014 747.474L324.013 747.472C312.415 732.338 308.573 716.357 305.683 700.136C305.273 697.833 304.881 695.524 304.489 693.211C302.125 679.259 299.74 665.182 293.003 651.502C289.027 643.212 284.06 635.564 278.303 628.346C263.019 608.926 242.54 592.97 221.055 578.968C207.121 569.887 192.736 561.611 179.063 553.744C171.664 549.487 164.474 545.35 157.677 541.271Z" stroke="#F3CDDB" stroke-miterlimit="10"/>
<path d="M292.804 666.31C279 638.272 255.179 616.315 228.737 597.729C210.081 584.616 190.082 573.156 171.351 562.423C163.541 557.948 155.953 553.6 148.773 549.31L148.772 549.31C141.945 545.254 134.07 540.888 125.58 536.181C105.221 524.894 81.3278 511.647 59.8763 496.018C29.4759 473.869 4.16266 447.059 0.822388 414.491C-2.12128 385.74 15.5435 359.437 35.6922 340.003L35.3451 339.643L35.6924 340.003C49.9108 326.276 65.6641 314.499 81.5193 302.781C82.241 302.248 82.9629 301.715 83.6849 301.181C98.8163 290.004 113.981 278.803 127.884 265.958L127.544 265.591L127.884 265.958C152.088 243.576 164.804 221.171 171.037 196.395C177.265 171.64 177.012 144.543 175.33 112.806C172.866 65.0483 191.391 30.5015 220.43 6.90217C249.489 -16.7136 289.103 -29.3857 328.809 -33.2938C358.856 -36.2532 389.675 -36.674 419.89 -31.8168C426.928 -30.6622 434.626 -29.4952 442.802 -28.2558C475.113 -23.3574 514.881 -17.3287 550.829 -6.46883C573.347 0.333755 594.333 9.02325 611.026 20.4969C627.716 31.9685 640.09 46.2048 645.439 64.1007L645.439 64.1022C646.464 67.492 646.183 71.4146 644.862 75.7766C643.54 80.1373 641.19 84.9005 638.124 89.9467C631.99 100.041 623.041 111.188 613.899 122.407C613.225 123.234 612.551 124.06 611.876 124.887C603.406 135.27 594.938 145.649 588.603 155.202C585.182 160.36 582.372 165.294 580.515 169.872C578.66 174.447 577.743 178.704 578.151 182.494L578.151 182.495C580.273 201.925 583.975 220.66 587.642 239.223C589.449 248.371 591.248 257.476 592.846 266.603C597.69 294.273 600.698 322.195 596.553 352.269C591.675 387.613 612.137 420.881 635.22 453.891C637.97 457.824 640.758 461.753 643.546 465.683C652.478 478.273 661.413 490.867 669.127 503.594C679.247 520.289 687.238 537.168 690.338 554.482L690.338 554.483C690.949 557.873 689.81 561.364 687.254 564.97C684.698 568.578 680.757 572.251 675.868 575.974C666.19 583.343 652.91 590.823 639.609 598.314L639.193 598.549C625.774 606.107 612.37 613.677 602.77 621.122C597.97 624.845 594.09 628.56 591.632 632.254C589.172 635.953 588.108 639.679 589.045 643.38L589.046 643.381C602.636 696.46 578.425 744.526 541.895 780.001L541.893 780.002C530.059 791.603 515.486 802.972 492.639 809.712L492.638 809.712C462.085 818.776 426.522 816.463 395.496 807.832C364.454 799.197 338.064 784.268 325.794 768.207C313.504 752.12 309.415 735.135 306.326 717.909C305.891 715.481 305.476 713.047 305.06 710.61C302.528 695.779 299.975 680.825 292.804 666.31ZM292.804 666.31L292.356 666.531M292.804 666.31C292.804 666.309 292.804 666.309 292.804 666.309L292.356 666.531M292.356 666.531C268.903 618.898 216.386 588.805 171.124 562.87C163.31 558.392 155.712 554.038 148.517 549.74L578.648 182.441C580.768 201.85 584.462 220.547 588.127 239.097C595.409 275.953 602.576 312.226 597.048 352.338C591.625 391.634 617.719 428.415 643.947 465.383C664.601 494.497 685.339 523.727 690.83 554.394C693.388 568.598 666.59 583.692 639.876 598.738C612.87 613.948 585.949 629.111 589.53 643.257C603.182 696.575 578.846 744.814 542.243 780.359C530.372 791.996 515.731 803.421 492.78 810.192C431.446 828.387 350.128 800.882 325.397 768.511C311.285 750.04 307.931 730.397 304.565 710.685C302.032 695.85 299.492 680.976 292.356 666.531Z" stroke="#F3CDDB" stroke-miterlimit="10"/>
</svg>
