<svg width="413" height="260" viewBox="0 0 413 260" fill="none" xmlns="http://www.w3.org/2000/svg">
<path d="M248.504 467.726L248.501 467.724C245.759 465.985 242.633 464.139 239.299 462.171C232.226 457.996 224.218 453.269 216.951 447.831C206.262 439.832 197.352 430.414 195.505 419.193C193.957 409.257 198.984 400.095 205.287 392.511C210.006 386.94 215.616 381.991 221.45 377.074C222.544 376.152 223.646 375.231 224.752 374.307C229.532 370.312 234.373 366.266 238.886 361.871C244.46 356.549 248.454 351.215 251.252 345.656L251.255 345.652C257.553 332.813 257.059 318.946 256.477 302.598L256.45 301.829V301.828C255.862 285.589 262.174 273.357 272.226 264.804C282.293 256.239 296.136 251.347 310.607 249.873C321.267 248.817 331.904 248.609 342.132 250.292L342.136 250.292C342.463 250.344 342.792 250.395 343.125 250.448C355.789 252.441 372.556 255.079 387.207 260.267C402.267 265.6 414.912 273.566 418.698 286.118C419.382 288.565 418.503 291.69 416.665 295.274C414.839 298.837 412.133 302.729 409.347 306.662C409.112 306.995 408.875 307.328 408.639 307.661C406.092 311.25 403.539 314.848 401.633 318.191C399.562 321.822 398.184 325.266 398.5 328.137L398.5 328.139C399.289 335.028 400.473 341.653 401.634 348.149C402.222 351.44 402.804 354.698 403.326 357.941C404.882 367.606 405.913 377.185 405.028 387.28L405.028 387.283C403.926 400.784 410.391 413.553 417.406 426.153C418.047 427.305 418.692 428.454 419.337 429.603C425.784 441.086 432.184 452.486 433.52 464.394L433.521 464.397C433.793 466.675 432.654 469.088 430.535 471.639C428.425 474.178 425.419 476.762 422.132 479.365C420.749 480.46 419.309 481.565 417.87 482.668C415.918 484.164 413.968 485.659 412.166 487.128C409.031 489.684 406.252 492.231 404.527 494.725C402.898 496.904 402.228 498.951 402.663 501.043L402.665 501.055L402.669 501.067C407.754 520.518 399.553 538.752 386.176 552.427C382.064 556.614 377.002 560.777 369.028 563.285C368.94 563.295 368.86 563.316 368.802 563.332C368.72 563.357 368.634 563.387 368.564 563.412L368.558 563.414C368.48 563.442 368.421 563.463 368.369 563.478C368.339 563.487 368.323 563.49 368.318 563.491H368.259L368.19 563.511C357.425 566.651 345.012 565.714 334.194 562.507C323.362 559.295 314.232 553.837 309.971 548.038C305.689 542.21 304.22 536.116 303.136 529.92C302.964 528.94 302.802 527.956 302.639 526.97C301.779 521.744 300.907 516.45 298.549 511.315C297.147 508.104 295.348 505.113 293.354 502.342L293.353 502.34C287.865 494.763 280.344 488.484 272.361 482.917C267.175 479.3 261.765 475.966 256.584 472.771C253.801 471.056 251.085 469.382 248.504 467.726Z" stroke="#DED6EB" stroke-miterlimit="10"/>
<path d="M311.156 568.771L311.158 568.773C316.11 575.523 326.772 581.827 339.412 585.542C352.036 589.253 366.528 590.348 379.076 586.784L379.143 586.765H379.212C379.315 586.765 379.39 586.741 379.539 586.688L379.551 586.684C379.684 586.636 379.874 586.569 380.118 586.556C389.47 583.625 395.323 578.829 400.227 574.005C415.781 558.213 425.36 537.443 419.487 515.036C418.829 512.682 419.949 510.185 421.748 507.832M311.156 568.771L422.146 508.135M311.156 568.771C306.183 562.097 304.468 555.052 303.185 547.85C302.985 546.725 302.795 545.595 302.604 544.461C301.579 538.362 300.538 532.164 297.757 526.125M311.156 568.771L297.301 526.331M421.748 507.832C421.749 507.832 421.749 507.831 421.749 507.831L422.146 508.135M421.748 507.832C421.748 507.833 421.748 507.833 421.747 507.834L422.146 508.135M421.748 507.832C423.87 505.024 427.231 502.146 431.018 499.255C433.204 497.585 435.561 495.891 437.92 494.194C439.64 492.957 441.361 491.719 443.019 490.49C446.973 487.556 450.598 484.646 453.159 481.797C455.732 478.933 457.138 476.233 456.867 473.705M422.146 508.135C425.423 503.796 431.777 499.227 438.199 494.609C448.061 487.518 458.083 480.311 457.364 473.648M456.867 473.705C456.867 473.707 456.868 473.708 456.868 473.709L457.364 473.648M456.867 473.705C456.867 473.704 456.867 473.703 456.867 473.701L457.364 473.648M456.867 473.705C455.188 460.198 447.5 447.232 439.755 434.168C438.9 432.727 438.045 431.284 437.197 429.84C428.699 415.363 420.938 400.683 422.44 385.16L422.44 385.159C423.621 373.269 422.392 362 420.54 350.696C419.946 347.07 419.286 343.435 418.622 339.774C417.22 332.045 415.796 324.2 414.922 316.077C414.556 312.777 416.225 308.787 418.736 304.557C421.02 300.709 424.066 296.563 427.11 292.419C427.431 291.981 427.753 291.542 428.074 291.105C431.441 286.511 434.708 281.958 436.901 277.795C439.108 273.606 440.154 269.945 439.277 267.083L439.276 267.079C434.9 252.416 419.838 243.23 402.001 237.127C385.393 231.445 366.545 228.491 352.112 226.229C351.071 226.066 350.053 225.906 349.061 225.75C337.049 223.854 324.432 224.063 312.187 225.119C295.44 226.805 279.273 232.386 267.475 242.3C255.693 252.201 248.245 266.443 248.931 285.537C249.722 304.762 250.331 320.766 242.943 335.5C239.749 341.904 235.162 348.086 228.792 354.047C228.791 354.047 228.791 354.048 228.79 354.048L228.449 353.683L457.364 473.648M291.569 515.666C285.093 506.928 276.337 499.645 267.043 493.204C260.445 488.633 253.553 484.47 247.001 480.514C244.329 478.9 241.714 477.321 239.198 475.762C236.11 473.827 232.575 471.764 228.794 469.556C220.521 464.728 211.066 459.209 202.507 452.83C190.036 443.534 179.647 432.531 177.699 419.411C175.952 407.579 182.352 396.937 189.849 388.288L291.168 515.963M291.569 515.666L291.168 515.963M291.569 515.666C291.569 515.665 291.569 515.664 291.568 515.664L291.168 515.963M291.569 515.666C293.961 518.863 296.157 522.49 297.757 526.125M291.168 515.963C293.542 519.137 295.719 522.734 297.301 526.331M297.757 526.125C297.757 526.124 297.756 526.123 297.756 526.121L297.301 526.331M297.757 526.125C297.758 526.126 297.758 526.128 297.759 526.129L297.301 526.331" stroke="#DED6EB" stroke-miterlimit="10"/>
<path d="M160.091 419.412L160.091 419.417C162.14 434.542 174.009 447.077 188.285 457.615C197.926 464.732 208.578 470.881 217.939 476.285C222.442 478.884 226.647 481.311 230.296 483.591M160.091 419.412L230.032 484.015M160.091 419.412C158.146 406.103 165.727 393.771 174.411 384.062C180.811 377.008 188.3 370.841 195.991 364.706C196.921 363.964 197.854 363.222 198.789 362.48C205.572 357.089 212.426 351.642 218.706 345.58C225.86 338.779 231.042 331.964 234.633 324.71C243.011 308.283 242.401 290.374 241.611 268.611L241.611 268.607C240.629 246.658 249.165 230.356 262.676 219.054C276.205 207.737 294.748 201.415 313.773 199.518L313.775 199.517C327.993 198.039 342.388 197.83 356.179 200.148L356.18 200.148C358.192 200.479 360.3 200.818 362.487 201.169C378.501 203.74 398.779 206.996 416.819 213.009C437.355 219.853 454.786 230.205 459.853 246.981L459.854 246.983C460.827 250.154 459.556 254.285 456.941 259.042C454.343 263.77 450.501 268.971 446.552 274.226C446.24 274.642 445.927 275.057 445.615 275.473C441.98 280.303 438.337 285.146 435.615 289.63C434.136 292.066 432.919 294.412 432.122 296.608C431.326 298.8 430.937 300.871 431.146 302.747C432.158 312.128 433.839 321.155 435.494 330.042C436.268 334.2 437.037 338.328 437.729 342.447C439.902 355.389 441.328 368.296 439.852 381.981L439.851 381.984C438.051 399.523 447.105 416.059 457.061 432.386C458.079 434.056 459.107 435.723 460.134 437.39C464.143 443.895 468.145 450.387 471.539 456.945C475.802 465.178 479.088 473.476 480.215 481.963L160.091 419.412ZM230.296 483.591L230.032 484.015M230.296 483.591C230.296 483.591 230.296 483.59 230.295 483.59L230.032 484.015M230.296 483.591C233.383 485.505 236.605 487.443 239.901 489.426C247.145 493.783 254.746 498.355 262.045 503.359C272.673 510.644 282.714 518.878 290.18 528.777M230.032 484.015C233.13 485.937 236.359 487.879 239.66 489.864C257.434 500.556 277.268 512.486 289.783 529.081M290.18 528.777C290.18 528.777 290.179 528.776 290.179 528.776L289.783 529.081M290.18 528.777C290.181 528.778 290.181 528.779 290.182 528.78L289.783 529.081M290.18 528.777L289.783 529.081M390.305 609.648C390.288 609.657 390.271 609.665 390.254 609.674L390.49 610.115L390.353 609.635C390.337 609.639 390.321 609.644 390.305 609.648ZM414.471 594.952C414.471 594.952 414.471 594.953 414.47 594.953L414.826 595.305L414.473 594.95C414.473 594.951 414.472 594.951 414.471 594.952ZM439.17 520.09C439.167 520.093 439.165 520.097 439.162 520.1L439.557 520.406L439.178 520.081C439.175 520.084 439.172 520.087 439.17 520.09Z" stroke="#DED6EB" stroke-miterlimit="10"/>
<path d="M159.173 379.835L159.17 379.837C149.109 390.597 140.535 404.414 142.484 419.631M159.173 379.835L141.988 419.695M159.173 379.835C166.365 372.038 174.696 365.236 183.253 358.492C184.458 357.543 185.668 356.594 186.879 355.644C194.26 349.856 201.708 344.014 208.608 337.547C216.759 330.106 222.535 322.442 226.521 314.555L226.522 314.553C235.69 296.225 235.279 276.206 234.291 252.105L234.291 252.104C233.21 227.3 242.882 208.988 258.125 196.337C273.385 183.671 294.253 176.66 315.554 174.551L315.557 174.551C331.554 172.861 347.731 172.652 363.304 175.182C365.82 175.593 368.474 176.013 371.238 176.45C389.153 179.285 411.742 182.86 431.884 189.445C455.167 197.057 474.968 208.626 480.628 227.514C481.161 229.3 481.061 231.362 480.438 233.664C479.815 235.965 478.679 238.476 477.178 241.14C474.175 246.469 469.758 252.332 465.228 258.249C464.884 258.698 464.539 259.147 464.194 259.597C460.011 265.054 455.82 270.521 452.692 275.576C450.998 278.313 449.605 280.945 448.692 283.405C447.78 285.86 447.334 288.175 447.568 290.265C448.698 300.567 450.565 310.527 452.409 320.364C453.314 325.19 454.213 329.985 455.017 334.777C457.462 349.358 459.036 363.956 457.264 379.439L457.263 379.439C455.065 398.891 465.362 417.282 476.776 435.459C478.016 437.434 479.27 439.407 480.523 441.379C485.051 448.505 489.573 455.62 493.434 462.803C498.361 471.969 502.19 481.207 503.563 490.646L503.563 490.646C504.022 493.784 502.184 497.108 498.763 500.615C495.361 504.103 490.508 507.655 485.204 511.238C483.009 512.721 480.73 514.213 478.451 515.705C475.252 517.8 472.052 519.896 469.076 521.97C463.976 525.526 459.449 529.076 456.582 532.572L456.579 532.577M159.173 379.835L456.579 532.577M142.484 419.631C142.484 419.631 142.484 419.631 142.484 419.632L141.988 419.695M142.484 419.631C142.484 419.631 142.483 419.63 142.483 419.63L141.988 419.695M142.484 419.631C144.731 436.658 158.083 450.779 174.139 462.613C185.201 470.767 197.461 477.777 208.143 483.885C212.965 486.643 217.466 489.217 221.391 491.629M141.988 419.695C145.832 448.83 181.729 469.357 207.929 484.34C212.743 487.092 217.229 489.658 221.129 492.055M221.391 491.629C221.39 491.629 221.39 491.628 221.389 491.628L221.129 492.055M221.391 491.629L221.129 492.055M221.391 491.629L221.129 492.055M456.579 532.577C454.199 535.546 452.657 538.477 453.519 541.484L456.579 532.577ZM297.161 555.104C297.161 555.103 297.16 555.103 297.16 555.103L296.708 555.317L297.161 555.105C297.161 555.104 297.161 555.104 297.161 555.104ZM314.322 609.604C314.321 609.603 314.321 609.603 314.321 609.603L313.921 609.904L314.323 609.606C314.323 609.605 314.322 609.604 314.322 609.604ZM401.585 632.497C401.567 632.506 401.55 632.515 401.532 632.525L401.768 632.965L401.634 632.484C401.617 632.488 401.601 632.493 401.585 632.497ZM428.719 616.108L429.072 616.462L428.724 616.103C428.723 616.104 428.722 616.105 428.721 616.106C428.72 616.107 428.72 616.107 428.719 616.108Z" stroke="#DED6EB" stroke-miterlimit="10"/>
<path d="M143.735 375.608L143.735 375.609C132.485 387.428 122.728 402.938 124.874 419.632L124.875 419.634C127.222 438.669 142.056 454.376 159.892 467.479C172.187 476.511 185.82 484.248 197.659 490.967C202.996 493.995 207.968 496.817 212.288 499.457L212.288 499.457C216.344 501.94 220.601 504.456 224.967 507.037C233.778 512.244 243.03 517.712 251.95 523.694C265.3 532.646 277.963 542.784 287.409 555.011L287.41 555.013C290.993 559.695 293.976 564.588 296.56 569.69L296.566 569.7C300.642 578.237 302.115 587.051 303.574 595.777C303.828 597.296 304.081 598.811 304.348 600.322C306.15 610.54 308.558 620.598 315.706 630.127C322.834 639.629 338.047 648.473 356.029 653.67C373.98 658.857 394.587 660.378 412.467 655.348C412.716 655.227 412.998 655.167 413.21 655.121L413.238 655.116C413.503 655.059 413.675 655.018 413.799 654.952L413.843 654.928L413.892 654.914C427.239 650.926 435.876 644.003 442.768 637.264C464.655 615.545 478.583 586.522 470.335 555.021C469.479 551.813 471.001 548.469 473.803 545.258C477.066 541.447 482.173 537.581 487.919 533.708C491.239 531.47 494.802 529.211 498.365 526.953C500.962 525.307 503.558 523.661 506.059 522.024C512.018 518.125 517.47 514.254 521.295 510.448C525.141 506.622 527.218 502.983 526.712 499.533C525.141 489.091 520.807 478.889 515.24 468.778C510.885 460.867 505.791 453.036 500.691 445.198C499.269 443.012 497.847 440.826 496.44 438.637C483.567 418.61 471.98 398.365 474.476 376.899L474.477 376.898C476.546 359.513 474.774 343.276 472.007 327.082C471.106 321.809 470.098 316.534 469.084 311.224C466.987 300.252 464.862 289.131 463.594 277.571M143.735 375.608L464.091 277.515M143.735 375.608C151.819 367.069 161.091 359.631 170.514 352.279C171.552 351.469 172.592 350.66 173.633 349.85C182.026 343.321 190.447 336.77 198.123 329.506M143.735 375.608L197.782 329.14M463.594 277.571C463.594 277.57 463.594 277.57 463.594 277.57L464.091 277.515M463.594 277.571C463.594 277.571 463.594 277.571 463.594 277.571L464.091 277.515M463.594 277.571C463.335 275.267 463.837 272.71 464.865 269.991C465.893 267.268 467.461 264.35 469.368 261.312C472.879 255.72 477.576 249.669 482.27 243.622C482.674 243.102 483.078 242.581 483.481 242.061C488.58 235.483 493.553 228.959 496.933 223.028C498.622 220.064 499.902 217.267 500.603 214.702C501.303 212.137 501.416 209.836 500.809 207.84L500.808 207.837C494.555 186.837 472.385 174.103 446.379 165.776C424.377 158.731 399.787 154.888 380.139 151.817C376.594 151.263 373.211 150.734 370.032 150.216M464.091 277.515C463.141 269.082 472.869 256.549 482.668 243.924C493.273 230.262 503.961 216.492 501.288 207.695C489.592 168.416 423.042 158.016 380.207 151.321C376.665 150.768 373.285 150.24 370.111 149.722M370.032 150.216C370.032 150.216 370.033 150.216 370.033 150.216L370.111 149.722M370.032 150.216C370.032 150.216 370.031 150.216 370.031 150.216L370.111 149.722M370.032 150.216C352.676 147.474 334.717 147.684 316.937 149.374M370.111 149.722C352.7 146.972 334.696 147.183 316.889 148.876M316.889 148.876L316.938 149.374C316.937 149.374 316.937 149.374 316.937 149.374M316.889 148.876C269.404 153.531 223.701 179.766 226.075 235.623M316.889 148.876L316.936 149.374C316.936 149.374 316.937 149.374 316.937 149.374M316.937 149.374C293.261 151.695 270.069 159.393 253.104 173.434C236.156 187.46 225.394 207.834 226.574 235.601M226.075 235.623L226.574 235.601M226.075 235.623C227.262 262.282 227.46 284.074 217.369 303.962M226.075 235.623L226.574 235.602C226.574 235.601 226.574 235.601 226.574 235.601M226.574 235.601C227.761 262.245 227.973 284.166 217.816 304.187M217.369 303.962L217.816 304.187M217.369 303.962C213.016 312.637 206.685 320.889 197.782 329.14M217.369 303.962L217.815 304.189C217.815 304.188 217.816 304.187 217.816 304.187M217.816 304.187C213.432 312.923 207.062 321.221 198.123 329.506M197.782 329.14L198.125 329.503C198.125 329.504 198.124 329.505 198.123 329.506M197.782 329.14L198.122 329.507C198.122 329.507 198.122 329.506 198.123 329.506" stroke="#DED6EB" stroke-miterlimit="10"/>
<path d="M128.299 371.38L128.297 371.383C115.668 384.255 104.919 401.248 107.069 419.85C109.516 440.786 125.881 458.078 145.548 472.504C158.956 482.339 173.809 490.782 186.718 498.121C192.747 501.548 198.352 504.734 203.188 507.709C207.575 510.365 212.185 513.059 216.917 515.824C226.666 521.521 236.933 527.521 246.83 534.113C261.539 543.911 275.49 555.054 285.827 568.552C289.801 573.652 293.186 578.973 295.777 584.727C300.285 594.098 301.925 603.785 303.551 613.389C303.828 615.031 304.106 616.67 304.397 618.305C306.398 629.529 309.053 640.592 316.894 651.073C324.714 661.526 341.459 671.217 361.248 676.916C381.014 682.609 403.712 684.288 423.381 678.824C423.701 678.711 423.969 678.654 424.21 678.602L424.219 678.6C424.466 678.548 424.684 678.5 424.947 678.407L424.959 678.403L424.971 678.399C439.704 673.987 449.133 666.429 456.617 659.057C480.485 635.432 495.994 603.658 486.954 568.984L486.951 568.971C486.103 565.342 487.824 561.791 491.02 558.16C494.63 554.032 500.306 549.835 506.704 545.626C510.391 543.2 514.349 540.751 518.307 538.301C521.21 536.504 524.114 534.706 526.912 532.918C533.551 528.674 539.628 524.459 543.882 520.316C548.16 516.15 550.463 512.184 549.861 508.425L549.861 508.423C548.093 496.976 543.241 485.81 537.019 474.752C532.171 466.138 526.508 457.614 520.841 449.086C519.232 446.663 517.622 444.241 516.03 441.815C501.675 419.937 488.796 397.837 491.69 374.357C494.056 355.175 492.086 337.247 489.023 319.386C488.051 313.723 486.969 308.061 485.88 302.368C483.539 290.128 481.17 277.74 479.818 264.875M128.299 371.38L480.315 264.82M128.299 371.38C137.273 362.1 147.485 354.08 157.848 346.119C158.732 345.44 159.617 344.762 160.502 344.083C169.989 336.808 179.525 329.497 188.232 321.253C197.961 312.123 204.923 302.981 209.702 293.613M128.299 371.38L209.702 293.613M479.818 264.875C479.818 264.874 479.818 264.873 479.818 264.873L480.315 264.82M479.818 264.875C479.819 264.875 479.819 264.876 479.819 264.877L480.315 264.82M479.818 264.875C479.534 262.359 480.093 259.56 481.236 256.577C482.381 253.591 484.124 250.386 486.246 247.048C490.163 240.886 495.407 234.212 500.65 227.539C501.086 226.983 501.522 226.428 501.958 225.872C507.638 218.634 513.186 211.448 516.971 204.915C518.863 201.65 520.302 198.567 521.099 195.738C521.896 192.909 522.042 190.367 521.385 188.161M480.315 264.82C479.269 255.562 490.117 241.754 501.046 227.843C512.846 212.824 524.74 197.684 521.865 188.018M521.385 188.161C521.385 188.161 521.386 188.161 521.386 188.162L521.865 188.018M521.385 188.161C514.44 165.046 489.897 151.095 461.195 142C437.14 134.378 410.321 130.215 388.855 126.882C384.739 126.243 380.819 125.635 377.154 125.038L377.153 125.038C357.823 121.874 338.085 122.294 318.719 124.196L318.718 124.196C292.767 126.728 267.2 135.168 248.503 150.584C229.824 165.985 217.976 188.368 219.452 218.884L219.452 218.884C220.836 248.068 221.049 271.897 209.702 293.613M521.385 188.161C521.385 188.161 521.385 188.161 521.385 188.16L521.865 188.018M521.865 188.018L209.702 293.613" stroke="#DED6EB" stroke-miterlimit="10"/>
<path d="M112.862 367.153L112.863 367.152C122.727 357.13 133.879 348.475 145.207 339.906C146.366 339.029 147.527 338.153 148.688 337.277C158.87 329.594 169.1 321.876 178.532 313.217L178.534 313.215C189.055 303.45 196.613 293.672 201.788 283.455C213.925 259.625 213.713 234.108 212.328 202.383L212.328 202.381C210.753 168.903 223.74 144.457 244.149 127.681C264.577 110.889 292.468 101.762 320.696 99.018L320.697 99.0179C341.838 96.905 363.359 96.6955 384.474 100.072C388.617 100.743 393.061 101.426 397.737 102.145C421.115 105.741 450.277 110.227 476.455 118.436C507.904 128.298 534.818 143.466 542.357 168.694C543.063 171.111 542.887 173.894 541.998 176.987C541.109 180.079 539.517 183.449 537.43 187.015C533.256 194.15 527.151 201.997 520.903 209.897C520.402 210.529 519.901 211.162 519.4 211.795C513.652 219.051 507.908 226.303 503.602 232.995C501.261 236.634 499.333 240.124 498.06 243.374C496.787 246.62 496.153 249.661 496.437 252.389L496.437 252.392C497.961 266.141 500.531 279.385 503.069 292.472C504.324 298.938 505.571 305.365 506.68 311.796C510.041 331.269 512.158 350.836 509.497 371.816L509.496 371.816C506.304 397.204 520.423 421.157 536.212 444.885C538.007 447.582 539.823 450.276 541.639 452.97C547.83 462.153 554.019 471.333 559.334 480.607C566.205 492.597 571.589 504.702 573.603 517.1C574.253 521.171 571.697 525.453 566.976 529.938C562.28 534.399 555.579 538.932 548.26 543.493C545.16 545.425 541.943 547.366 538.726 549.306C534.376 551.93 530.028 554.554 525.971 557.153C518.91 561.679 512.642 566.191 508.636 570.634C505.044 574.476 503.109 578.46 504.167 582.316C513.997 620.163 497.103 654.686 471.061 680.213C462.795 688.211 452.591 696.392 436.512 701.229C435.859 701.246 435.224 701.472 434.678 701.667L434.657 701.674C413.208 707.667 388.433 705.83 366.861 699.634C345.266 693.432 326.987 682.895 318.475 671.595L318.475 671.594C309.843 660.161 306.941 648.146 304.768 635.946C304.446 634.142 304.141 632.334 303.835 630.523C302.075 620.1 300.298 609.572 295.379 599.322C292.391 592.933 288.611 587.191 284.444 581.674L284.439 581.668C273.015 567.007 257.729 554.912 241.659 544.268C231.06 537.247 220.093 530.841 209.66 524.747C204.285 521.608 199.052 518.551 194.084 515.536C188.971 512.426 183.071 509.091 176.725 505.505C162.498 497.466 146.034 488.163 131.203 477.291C109.755 461.568 91.9065 442.689 89.2612 419.849L89.2611 419.849C86.9143 399.772 99.0415 381.087 112.862 367.153ZM112.507 366.801C98.6571 380.765 86.3903 399.595 88.7645 419.907L112.507 366.801Z" stroke="#DED6EB" stroke-miterlimit="10"/>
<path d="M97.4281 362.923L97.4283 362.923C108.184 352.16 120.227 342.869 132.421 333.638C133.346 332.938 134.272 332.238 135.198 331.538C146.474 323.014 157.804 314.449 168.246 304.752L168.248 304.75C179.561 294.138 187.512 283.727 193.279 272.668L193.28 272.666C206.406 247.144 206.393 219.723 204.81 185.456L204.81 185.453C202.939 149.12 217.013 122.665 239.153 104.541C261.312 86.3999 291.577 76.5847 322.081 73.6289L322.083 73.6287C345.206 71.3039 368.505 70.8837 391.397 74.6823L391.479 74.1891L391.398 74.6823C396.398 75.5112 401.812 76.3524 407.532 77.2412C432.508 81.1223 463.318 85.91 491.073 94.5284C525.219 105.131 554.506 121.464 562.736 148.808C563.515 151.408 563.328 154.412 562.361 157.754C561.395 161.095 559.659 164.741 557.384 168.603C552.832 176.33 546.171 184.845 539.354 193.419C538.816 194.095 538.278 194.771 537.739 195.448C531.459 203.336 525.181 211.221 520.477 218.491C517.922 222.439 515.82 226.223 514.431 229.741C513.043 233.257 512.353 236.542 512.661 239.483L512.661 239.484C514.27 254.535 517.083 269.044 519.866 283.397C521.194 290.249 522.516 297.066 523.696 303.889C527.353 325.028 529.668 346.286 526.71 369.063C523.121 396.465 538.529 422.271 555.802 447.85C557.78 450.781 559.784 453.708 561.787 456.635C568.546 466.512 575.305 476.388 581.112 486.369C588.639 499.304 594.541 512.375 596.752 525.777C597.45 530.106 594.654 534.677 589.507 539.473C584.388 544.242 577.087 549.099 569.112 553.991C565.729 556.066 562.219 558.151 558.709 560.236C553.972 563.05 549.235 565.863 544.811 568.653C537.102 573.514 530.251 578.357 525.85 583.117L525.843 583.124C522.065 587.377 519.93 591.358 520.983 595.636L520.984 595.642C531.607 636.662 513.132 673.726 485.108 701.372C476.053 710.213 464.861 719.031 447.592 724.291C446.939 724.308 446.304 724.534 445.759 724.729L445.738 724.736C422.408 731.153 395.605 729.156 372.277 722.458C348.927 715.754 329.163 704.37 319.859 692.117C310.536 679.838 307.386 666.818 305.015 653.586C304.668 651.648 304.338 649.706 304.007 647.76C302.08 636.434 300.135 624.998 294.784 613.918L294.782 613.913C291.402 607.109 287.427 600.946 282.859 595L282.858 594.999C270.543 579.067 253.97 565.967 236.539 554.476C224.959 546.842 212.974 539.902 201.598 533.315C195.86 529.993 190.278 526.761 184.981 523.575C179.475 520.238 173.106 516.657 166.249 512.802C150.865 504.152 133.024 494.121 116.957 482.368C93.729 465.377 74.3983 444.912 71.6531 420.064L71.6528 420.061C69.108 398.081 82.4204 377.916 97.4281 362.923Z" stroke="#DED6EB" stroke-miterlimit="10"/>
<path d="M81.9921 358.695L81.9937 358.693C93.6403 347.189 106.624 337.263 119.734 327.344C120.268 326.939 120.802 326.535 121.337 326.131C133.912 316.62 146.558 307.056 158.157 296.076C170.463 284.825 179.006 273.356 185.166 261.668L185.167 261.665C199.284 234.45 199.27 205.123 197.49 168.317L197.49 168.316C195.519 129.232 210.731 100.768 234.602 81.2673C258.492 61.7511 291.082 51.1954 323.861 48.0279C348.767 45.7028 373.848 45.2825 398.522 49.2931L398.522 49.2932C403.745 50.1347 409.389 50.9897 415.349 51.8925C442.389 55.9885 475.937 61.0702 506.136 70.3559C543.027 81.6993 574.686 99.2486 583.51 128.706C584.339 131.518 584.118 134.762 583.055 138.368C581.991 141.973 580.096 145.905 577.618 150.068C572.662 158.397 565.426 167.574 558.027 176.809C557.457 177.52 556.887 178.231 556.316 178.942C549.487 187.456 542.662 195.964 537.551 203.805C534.781 208.054 532.504 212.123 530.999 215.906C529.496 219.685 528.75 223.212 529.083 226.366L529.083 226.367C530.825 242.563 533.886 258.146 536.914 273.566C538.36 280.926 539.798 288.25 541.083 295.585C545.061 318.31 547.574 341.208 544.319 365.889C540.433 395.302 557.079 423.013 575.786 450.47C577.984 453.696 580.21 456.918 582.436 460.14C589.704 470.658 596.97 481.174 603.23 491.796C611.406 505.668 617.839 519.677 620.298 534.031C621.091 538.728 618.065 543.654 612.488 548.797C606.939 553.913 599.014 559.107 590.359 564.33C586.656 566.564 582.813 568.808 578.971 571.051C573.863 574.032 568.758 577.012 563.991 579.967C555.63 585.148 548.209 590.308 543.46 595.386C539.268 599.869 537.147 604.268 538.195 608.748L538.198 608.76C549.611 652.53 529.752 692.555 499.553 722.105L499.552 722.106C489.694 731.804 477.694 741.267 459.004 746.737L458.99 746.741L458.977 746.746C458.693 746.847 458.359 746.95 458.009 747.056C457.672 747.159 457.321 747.267 457.015 747.375C431.905 754.32 403.025 752.165 377.891 744.965C352.735 737.758 331.438 725.527 321.441 712.427L321.044 712.73L321.441 712.426C311.327 699.196 307.93 685.172 305.386 670.935C305.012 668.841 304.656 666.742 304.3 664.639C302.237 652.467 300.157 640.189 294.388 628.304L294.386 628.3C290.808 621.073 286.437 614.274 281.472 607.903L281.47 607.901C268.066 590.913 250.159 576.915 231.369 564.604C219.135 556.589 206.499 549.273 194.481 542.315C188.052 538.593 181.8 534.973 175.88 531.403L175.88 531.403C170.099 527.929 163.435 524.2 156.264 520.185C139.564 510.838 120.107 499.947 102.613 487.155C77.6041 468.868 56.7895 446.816 53.8464 420.064C51.2997 396.602 65.6035 374.742 81.9921 358.695Z" stroke="#DED6EB" stroke-miterlimit="10"/>
<path d="M66.5585 354.465L66.5591 354.464C79.0955 342.219 93.0186 331.711 107.092 321.264C108.019 320.576 108.946 319.888 109.873 319.201C123.026 309.447 136.239 299.649 148.458 288.463L148.46 288.461C161.557 276.366 170.695 264.261 177.252 251.723L177.253 251.721C192.359 222.602 192.543 191.162 190.565 152.024L190.565 152.024C188.397 109.978 204.648 79.4507 230.199 58.5757C255.771 37.6846 290.686 26.4409 325.84 23.0618C352.327 20.5253 379.387 20.1047 405.844 24.3273C411.552 25.2468 417.738 26.1804 424.281 27.1678C453.151 31.5243 488.959 36.9278 521.223 46.7918C541.008 52.8405 559.428 60.5578 574.078 70.7188C588.725 80.8775 599.578 93.4611 604.285 109.242L604.285 109.242C605.188 112.265 604.952 115.75 603.805 119.619C602.658 123.487 600.611 127.705 597.936 132.169C592.584 141.099 584.767 150.937 576.775 160.833C576.145 161.613 575.514 162.394 574.883 163.174C567.52 172.28 560.165 181.374 554.655 189.753C551.662 194.303 549.202 198.658 547.576 202.705C545.952 206.747 545.147 210.517 545.505 213.883L545.505 213.884C547.37 231.123 550.627 247.732 553.852 264.177C555.42 272.172 556.981 280.129 558.37 288.101C562.62 312.491 565.282 337.082 561.73 363.561L561.73 363.561C557.546 394.88 575.432 424.391 595.572 453.672C597.95 457.128 600.358 460.581 602.767 464.034C610.583 475.238 618.402 486.445 625.149 497.772C633.974 512.586 640.939 527.56 643.644 542.919C644.486 547.875 641.218 553.091 635.216 558.543C629.243 563.968 620.718 569.487 611.408 575.04C607.423 577.417 603.287 579.804 599.152 582.191C593.656 585.363 588.162 588.534 583.027 591.678C574.02 597.193 566.018 602.684 560.875 608.077L560.871 608.081C556.496 612.76 553.955 617.594 555.214 622.304C567.417 669.247 546.173 712.021 513.799 743.474L513.796 743.477C503.347 753.807 490.558 763.904 470.486 769.798C470.085 769.905 469.734 770.012 469.391 770.117L469.386 770.119C469.039 770.225 468.701 770.328 468.315 770.431L468.312 770.432C441.416 777.807 410.449 775.546 383.504 767.894C356.542 760.237 333.713 747.213 323.024 733.162L322.627 733.465L323.024 733.162C312.218 718.979 308.623 703.951 305.906 688.708C305.525 686.572 305.161 684.432 304.797 682.289C302.567 669.154 300.318 655.913 293.991 643.111L293.989 643.107C290.017 635.25 285.449 628.029 280.085 621.231C265.692 602.974 246.499 587.97 226.373 574.813C213.1 566.136 199.393 558.246 186.384 550.757C179.678 546.896 173.157 543.142 166.976 539.442L166.975 539.442C160.842 535.784 153.78 531.857 146.179 527.63C128.212 517.64 107.232 505.974 88.3918 492.233C61.578 472.676 39.2805 449.038 36.2377 420.277L36.2375 420.276C33.493 394.911 48.9823 371.571 66.5585 354.465Z" stroke="#DED6EB" stroke-miterlimit="10"/>
<path d="M157.677 547.271L157.675 547.27C151.227 543.432 143.803 539.307 135.808 534.864C116.636 524.211 94.1825 511.734 74.0228 497.02C45.453 476.167 21.6716 450.943 18.4308 420.277C15.6858 393.43 32.1641 368.609 51.1247 350.234C64.5521 337.248 79.4152 326.105 94.3313 314.995L95.4614 314.153C109.994 303.331 124.543 292.496 137.778 279.996C151.664 267.267 161.396 254.528 168.35 241.143L168.35 241.141C184.246 210.331 184.629 176.988 182.453 135.309C180.186 90.4068 197.574 57.87 224.857 35.6462C252.16 13.4061 289.399 1.47464 326.829 -2.1161L326.83 -2.11616C355.097 -4.86416 383.937 -5.28471 412.173 -0.639413L412.173 -0.639355C418.701 0.429802 425.817 1.5109 433.361 2.65694C463.92 7.29971 501.496 13.0083 535.42 23.3068C556.565 29.7259 576.259 37.9194 591.929 48.7285C607.596 59.5354 619.216 72.9389 624.269 89.7777L624.269 89.7796C625.245 92.9855 624.997 96.6873 623.772 100.8C622.548 104.911 620.357 109.397 617.493 114.147C611.764 123.649 603.391 134.128 594.83 144.673C594.164 145.492 593.498 146.312 592.832 147.132C584.934 156.847 577.044 166.553 571.133 175.493C567.927 180.343 565.292 184.983 563.551 189.293C561.811 193.599 560.95 197.61 561.333 201.189L561.333 201.189C563.332 219.575 566.837 237.284 570.308 254.82C571.993 263.334 573.67 271.808 575.163 280.299C579.735 306.303 582.594 332.532 578.746 360.808C574.165 394.14 593.339 425.504 614.963 456.636C617.524 460.322 620.119 464.006 622.715 467.689C631.099 479.589 639.488 491.495 646.729 503.533C656.209 519.292 663.692 535.232 666.595 551.595L666.595 551.596C667.534 556.865 664.049 562.384 657.631 568.138C651.245 573.863 642.115 579.68 632.136 585.537C627.932 588.005 623.572 590.484 619.21 592.963C613.245 596.353 607.276 599.746 601.696 603.118C592.029 608.959 583.436 614.792 577.896 620.554C572.91 625.461 570.383 630.499 571.633 635.623L571.634 635.63C584.631 685.747 561.805 731.061 527.451 764.632C516.207 775.6 502.624 786.333 481.163 792.65L481.15 792.654L481.136 792.659C480.566 792.862 479.797 793.068 478.999 793.281L478.997 793.282C450.32 801.08 417.275 798.661 388.524 790.506C359.757 782.347 335.394 768.476 324.014 753.474L324.013 753.472C312.415 738.338 308.573 722.357 305.683 706.136C305.273 703.833 304.881 701.524 304.489 699.211C302.125 685.259 299.74 671.182 293.003 657.502C289.027 649.212 284.06 641.564 278.303 634.346C263.019 614.926 242.54 598.97 221.055 584.968C207.121 575.887 192.736 567.611 179.063 559.744C171.664 555.487 164.474 551.35 157.677 547.271Z" stroke="#DED6EB" stroke-miterlimit="10"/>
<path d="M292.804 672.31C279 644.272 255.179 622.315 228.737 603.729C210.081 590.616 190.082 579.156 171.351 568.423C163.541 563.948 155.953 559.6 148.773 555.31L148.772 555.31C141.945 551.254 134.07 546.888 125.58 542.181C105.221 530.894 81.3278 517.647 59.8763 502.018C29.4759 479.869 4.16266 453.059 0.822388 420.491C-2.12128 391.74 15.5435 365.437 35.6922 346.003L35.3451 345.643L35.6924 346.003C49.9108 332.276 65.6641 320.499 81.5193 308.781C82.241 308.248 82.9629 307.715 83.6849 307.181C98.8163 296.004 113.981 284.803 127.884 271.958L127.544 271.591L127.884 271.958C152.088 249.576 164.804 227.171 171.037 202.395C177.265 177.64 177.012 150.543 175.33 118.806C172.866 71.0483 191.391 36.5015 220.43 12.9022C249.489 -10.7136 289.103 -23.3857 328.809 -27.2938C358.856 -30.2532 389.675 -30.674 419.89 -25.8168C426.928 -24.6622 434.626 -23.4952 442.802 -22.2558C475.113 -17.3574 514.881 -11.3287 550.829 -0.468828C573.347 6.33376 594.333 15.0233 611.026 26.4969C627.716 37.9685 640.09 52.2048 645.439 70.1007L645.439 70.1022C646.464 73.492 646.183 77.4146 644.862 81.7766C643.54 86.1373 641.19 90.9005 638.124 95.9467C631.99 106.041 623.041 117.188 613.899 128.407C613.225 129.234 612.551 130.06 611.876 130.887C603.406 141.27 594.938 151.649 588.603 161.202C585.182 166.36 582.372 171.294 580.515 175.872C578.66 180.447 577.743 184.704 578.151 188.494L578.151 188.495C580.273 207.925 583.975 226.66 587.642 245.223C589.449 254.371 591.248 263.476 592.846 272.603C597.69 300.273 600.698 328.195 596.553 358.269C591.675 393.613 612.137 426.881 635.22 459.891C637.97 463.824 640.758 467.753 643.546 471.683C652.478 484.273 661.413 496.867 669.127 509.594C679.247 526.289 687.238 543.168 690.338 560.482L690.338 560.483C690.949 563.873 689.81 567.364 687.254 570.97C684.698 574.578 680.757 578.251 675.868 581.974C666.19 589.343 652.91 596.823 639.609 604.314L639.193 604.549C625.774 612.107 612.37 619.677 602.77 627.122C597.97 630.845 594.09 634.56 591.632 638.254C589.172 641.953 588.108 645.679 589.045 649.38L589.046 649.381C602.636 702.46 578.425 750.526 541.895 786.001L541.893 786.002C530.059 797.603 515.486 808.972 492.639 815.712L492.638 815.712C462.085 824.776 426.522 822.463 395.496 813.832C364.454 805.197 338.064 790.268 325.794 774.207C313.504 758.12 309.415 741.135 306.326 723.909C305.891 721.481 305.476 719.047 305.06 716.61C302.528 701.779 299.975 686.825 292.804 672.31ZM292.804 672.31L292.356 672.531M292.804 672.31C292.804 672.309 292.804 672.309 292.804 672.309L292.356 672.531M292.356 672.531C268.903 624.898 216.386 594.805 171.124 568.87C163.31 564.392 155.712 560.038 148.517 555.74L578.648 188.441C580.768 207.85 584.462 226.547 588.127 245.097C595.409 281.953 602.576 318.226 597.048 358.338C591.625 397.634 617.719 434.415 643.947 471.383C664.601 500.497 685.339 529.727 690.83 560.394C693.388 574.598 666.59 589.692 639.876 604.738C612.87 619.948 585.949 635.111 589.53 649.257C603.182 702.575 578.846 750.814 542.243 786.359C530.372 797.996 515.731 809.421 492.78 816.192C431.446 834.387 350.128 806.882 325.397 774.511C311.285 756.04 307.931 736.397 304.565 716.685C302.032 701.85 299.492 686.976 292.356 672.531Z" stroke="#DED6EB" stroke-miterlimit="10"/>
</svg>
