<svg xmlns="http://www.w3.org/2000/svg" width="24" height="24" viewBox="0 0 24 24" fill="none">
  <path opacity="0.2" d="M16.5 12C16.5 12.89 16.2361 13.76 15.7416 14.5001C15.2471 15.2401 14.5443 15.8169 13.7221 16.1575C12.8998 16.4981 11.995 16.5872 11.1221 16.4135C10.2492 16.2399 9.44736 15.8113 8.81802 15.182C8.18869 14.5526 7.7601 13.7508 7.58647 12.8779C7.41283 12.005 7.50195 11.1002 7.84254 10.2779C8.18314 9.45566 8.75991 8.75285 9.49994 8.25839C10.24 7.76392 11.11 7.5 12 7.5C13.1935 7.5 14.3381 7.97411 15.182 8.81802C16.0259 9.66193 16.5 10.8065 16.5 12Z" fill="white"/>
  <path d="M20.8003 7.79614C21.841 9.97282 22.0386 12.4579 21.3549 14.7717C20.6712 17.0855 19.1546 19.064 17.0979 20.3253C15.0412 21.5867 12.5901 22.0416 10.2178 21.602C7.84545 21.1625 5.72 19.8598 4.25166 17.9454C2.78332 16.0309 2.07617 13.6405 2.2667 11.2353C2.45722 8.83012 3.53191 6.58078 5.28335 4.92139C7.03479 3.26199 9.33883 2.31018 11.7508 2.24966C14.1627 2.18913 16.5116 3.02418 18.344 4.59363L20.4694 2.46738C20.6101 2.32665 20.801 2.24759 21 2.24759C21.199 2.24759 21.3899 2.32665 21.5306 2.46738C21.6713 2.60812 21.7504 2.79899 21.7504 2.99801C21.7504 3.19703 21.6713 3.3879 21.5306 3.52863L12.5306 12.5286C12.3899 12.6694 12.199 12.7484 12 12.7484C11.801 12.7484 11.6101 12.6694 11.4694 12.5286C11.3286 12.3879 11.2496 12.197 11.2496 11.998C11.2496 11.799 11.3286 11.6081 11.4694 11.4674L14.0681 8.86864C13.3638 8.40284 12.5229 8.18838 11.6816 8.25996C10.8402 8.33154 10.0477 8.68498 9.43219 9.26306C8.81671 9.84114 8.41434 10.61 8.29022 11.4452C8.1661 12.2805 8.3275 13.1331 8.74828 13.8652C9.16907 14.5973 9.82461 15.1659 10.6088 15.4791C11.393 15.7922 12.2599 15.8315 13.0692 15.5907C13.8785 15.3498 14.5828 14.8428 15.0682 14.1519C15.5535 13.4609 15.7914 12.6263 15.7434 11.7833C15.7379 11.6848 15.7518 11.5862 15.7844 11.4931C15.8169 11.4 15.8675 11.3142 15.9333 11.2406C15.999 11.1671 16.0786 11.1072 16.1674 11.0644C16.2563 11.0216 16.3527 10.9967 16.4512 10.9911C16.6501 10.9799 16.8454 11.0482 16.9939 11.181C17.0675 11.2467 17.1274 11.3263 17.1702 11.4151C17.213 11.504 17.2379 11.6005 17.2434 11.6989C17.3118 12.8922 16.971 14.073 16.2773 15.0463C15.5837 16.0196 14.5786 16.7271 13.4284 17.0518C12.2782 17.3765 11.0516 17.2991 9.95135 16.8322C8.85111 16.3654 7.9431 15.5371 7.37738 14.4843C6.81166 13.4315 6.6221 12.2171 6.84004 11.042C7.05798 9.86682 7.67037 8.80121 8.57599 8.02125C9.48161 7.2413 10.6262 6.7937 11.8207 6.75243C13.0152 6.71115 14.188 7.07868 15.1453 7.79426L17.2781 5.66145C15.7151 4.36376 13.7278 3.68929 11.6978 3.76758C9.6678 3.84587 7.73832 4.67141 6.27991 6.08563C4.82151 7.49986 3.93702 9.40304 3.79634 11.4297C3.65565 13.4563 4.26869 15.4634 5.5177 17.0656C6.76671 18.6678 8.56362 19.752 10.5633 20.11C12.563 20.468 14.6245 20.0746 16.3518 19.0053C18.0791 17.9361 19.3505 16.2663 19.9217 14.3168C20.4929 12.3672 20.3237 10.2754 19.4465 8.44301C19.3608 8.26349 19.3498 8.05725 19.4161 7.86965C19.4824 7.68206 19.6205 7.52848 19.8 7.4427C19.9795 7.35692 20.1857 7.34596 20.3733 7.41224C20.5609 7.47853 20.7145 7.61662 20.8003 7.79614Z" fill="white"/>
</svg>