<svg xmlns="http://www.w3.org/2000/svg" width="24" height="24" viewBox="0 0 24 24" fill="none">
  <path opacity="0.2" d="M18.75 14.25L15 18L9 16.5L3.75 12.75L6.81375 6.62156L12 5.25L17.1863 6.62156L17.2125 6.75H13.5L9.21937 10.9022C9.1398 10.9817 9.07914 11.0781 9.04188 11.1843C9.00463 11.2905 8.99173 11.4037 9.00416 11.5155C9.01658 11.6273 9.05401 11.7349 9.11366 11.8303C9.17331 11.9257 9.25366 12.0064 9.34875 12.0666C10.9903 13.1156 13.2188 13.0434 15 11.25L18.75 14.25Z" fill="white"/>
  <path d="M23.8406 10.1163L21.4481 5.32946C21.36 5.15327 21.238 4.99617 21.0892 4.86713C20.9403 4.73809 20.7675 4.63963 20.5806 4.57739C20.3937 4.51514 20.1963 4.49033 19.9998 4.50435C19.8033 4.51838 19.6115 4.57098 19.4353 4.65915L17.1038 5.82446L12.1922 4.52509C12.0662 4.49229 11.9338 4.49229 11.8078 4.52509L6.89626 5.82446L4.56469 4.65915C4.38852 4.57098 4.1967 4.51838 4.0002 4.50435C3.8037 4.49033 3.60635 4.51514 3.41944 4.57739C3.23253 4.63963 3.05971 4.73809 2.91086 4.86713C2.762 4.99617 2.64002 5.15327 2.55188 5.32946L0.15938 10.1154C0.0712136 10.2916 0.0186144 10.4834 0.00458611 10.6799C-0.00944219 10.8764 0.0153751 11.0737 0.0776208 11.2606C0.139867 11.4476 0.238321 11.6204 0.367363 11.7692C0.496404 11.9181 0.653505 12.0401 0.829692 12.1282L3.36094 13.3948L8.56313 17.1101C8.63978 17.1646 8.72595 17.2044 8.81719 17.2273L14.8172 18.7273C14.9428 18.7588 15.0745 18.7572 15.1994 18.7227C15.3242 18.6882 15.438 18.622 15.5297 18.5304L20.6925 13.3666L23.1694 12.1282C23.525 11.9502 23.7953 11.6383 23.921 11.261C24.0467 10.8838 24.0175 10.472 23.8397 10.1163H23.8406ZM18.6947 13.2448L15.4688 10.661C15.3242 10.5453 15.142 10.4871 14.9572 10.4977C14.7723 10.5082 14.5979 10.5868 14.4675 10.7182C12.7978 12.4001 10.9369 12.1873 9.75001 11.4373L13.8038 7.49977H16.7859L19.3369 12.6007L18.6947 13.2448ZM3.89344 5.99977L5.81251 6.9579L3.41532 11.7438L1.5 10.7866L3.89344 5.99977ZM14.7684 17.1682L9.32063 15.807L4.70813 12.5126L7.33313 7.26259L12 6.02602L12.9188 6.26884L8.70001 10.3638L8.69251 10.3723C8.5337 10.5311 8.41258 10.7235 8.33808 10.9354C8.26359 11.1473 8.23762 11.3732 8.2621 11.5964C8.28657 11.8197 8.36087 12.0346 8.4795 12.2253C8.59813 12.416 8.75806 12.5776 8.94751 12.6982C10.875 13.9291 13.2009 13.7295 15.0328 12.2295L17.625 14.3116L14.7684 17.1682ZM20.5809 11.7429L18.1884 6.96165L20.1066 5.99977L22.5 10.7866L20.5809 11.7429ZM12.3544 20.4307C12.3139 20.5928 12.2204 20.7367 12.0888 20.8397C11.9571 20.9426 11.7949 20.9986 11.6278 20.9988C11.5662 20.9988 11.5048 20.9912 11.445 20.9763L7.53844 19.9995C7.44707 19.9769 7.36084 19.9371 7.28438 19.8823L4.81407 18.1179C4.66218 17.9986 4.56214 17.8254 4.53479 17.6342C4.50744 17.443 4.55489 17.2487 4.66725 17.0916C4.77961 16.9346 4.94823 16.8269 5.13798 16.791C5.32774 16.7552 5.52402 16.7939 5.68594 16.8991L8.04001 18.581L11.8125 19.5223C12.0054 19.5705 12.1713 19.6934 12.2736 19.864C12.3759 20.0345 12.4063 20.2387 12.3581 20.4316L12.3544 20.4307Z" fill="white"/>
</svg>